<?xml version="1.0" encoding="UTF-8" standalone="no"?>
<svg xmlns:rdf="http://www.w3.org/1999/02/22-rdf-syntax-ns#" xmlns="http://www.w3.org/2000/svg" xml:space="preserve" viewBox="0 0 182 182" version="1.1" height="182" width="182" xmlns:cc="http://creativecommons.org/ns#" xmlns:dc="http://purl.org/dc/elements/1.1/"><g transform="matrix(1.25 0 0 -1.25 -409 549.2)"><g><path d="m400 438.55c-39.763 0-72-32.235-72-72.002 0-39.761 32.237-71.998 72-71.998s72 32.237 72 71.998c0 39.767-32.237 72.002-72 72.002" fill="#edd372"/><path d="m400 296.87c-38.422 0-69.681 31.26-69.681 69.679 0 38.424 31.259 69.683 69.681 69.683 38.421 0 69.681-31.259 69.681-69.683 0-38.419-31.26-69.679-69.681-69.679"/><path d="m400 417.41c-28.089 0-50.86-22.771-50.86-50.86s22.771-50.86 50.86-50.86 50.86 22.771 50.86 50.86-22.771 50.86-50.86 50.86" fill="#edd372"/><path d="m90.348 27.75c-0.57125-0.03875-1.7266 0.11391-1.9941 0.25391-0.26625 0.14-0.78875 0.83805-1.0938 1.4355-0.19486 0.38094-0.29359 0.7014-0.36524 1.0176-11.908 0.7983-22.888 5.043-31.943 11.748 12.608 1.2575 24.902-1.2994 33.898-8.9844-0.04731-0.80701-0.27066-1.4732-0.04297-2.0762 0.0043-0.01289 0.02111-0.04194 0.02734-0.05859 0.08121-0.18854 0.20396-0.37178 0.39844-0.55078 0.09197-0.07066 0.19915-0.12819 0.31055-0.18164 0.26042-0.07859 0.59454-0.10875 0.97461-0.12109 0.51557-0.01559 0.84192 0.02132 1.1172 0.18945 0.01441 0.0088 0.03084 0.0142 0.04492 0.02344 0.26711 0.18122 0.46166 0.5078 0.53125 0.66602 0.0081 0.0219 0.02025 0.03977 0.02734 0.0625-1.0225 3.1975 3.0056 3.6459 4.7969 5.1797 7.8575 4.365 18.021 5.8627 27.594 4.1602-8.8807-5.9356-19.408-9.5875-30.738-10.123-0.03496-0.15224-0.06661-0.26167-0.11133-0.50586-0.09625-0.52-0.39477-0.92797-0.91602-1.4492-0.522-0.522-1.944-0.648-2.516-0.686zm3.527 2.652c0.0066 0.000308 0.01298 0.0016 0.01953 0.002 0.03728 0.16427 0.07706 0.37494 0.11914 0.53711l-0.139-0.539zm3.9141 0.31445c2.3888 0.26747 4.7358 0.67129 7.0332 1.209 0.58894 0.13784 1.1756 0.28455 1.7578 0.43945-0.58246-0.15494-1.1687-0.30159-1.7578-0.43945-2.2975-0.53763-4.6444-0.9414-7.0332-1.209zm-3.502 1.2871c0.46375 0.31984 0.9275 0.63056 1.3926 0.92969 2.2 1.415 4.4349 2.5804 6.8418 3.4355-2.4064-0.85506-4.6421-2.0208-6.8418-3.4355-0.46509-0.29913-0.92883-0.60789-1.3926-0.92774v-0.002zm14.031 0.85156c0.57528 0.1717 1.1468 0.35282 1.7148 0.54102-0.56823-0.18824-1.1394-0.36928-1.7148-0.54102zm3.6484 1.2207c1.0374 0.38337 2.0622 0.79091 3.0723 1.2285-1.01-0.43758-2.0349-0.8452-3.0723-1.2285zm3.0762 1.2305c1.089 0.47191 2.1618 0.97503 3.2168 1.5078-1.0548-0.53276-2.128-1.036-3.2168-1.5078zm-10.547 1.6895c0.53106 0.14327 1.0713 0.27078 1.623 0.38281 1.0669 0.37094 2.2453 0.6784 3.4902 0.91797-1.245-0.23938-2.4234-0.54539-3.4902-0.91602-0.55172-0.11203-1.092-0.24149-1.623-0.38476zm-44.539 1.9023c-0.90054 0.53826-1.7905 1.093-2.6602 1.6758 0.86928-0.5824 1.76-1.1378 2.6602-1.6758zm28.039 112-0.60547 0.67774s0.03812 0.54101 0.23438 1.041c0.19625 0.49875 0.95727 1.2382 1.4785 1.5644 0.5225 0.32625 2.1083 0.33235 2.957 0.2461 1.06-0.11 2.1405-0.10485 2.9355-1.2461 0.3475-0.5 0.5625-1.668 0.5625-1.668l0.0098-0.25391-7.5723-0.36133zm40.4-107.66c2.7488 3.5675 3.65 8.3388 3.945 12.81-4.8612 3.8388-9.02 9.7238-7.3562 16.886 2.0462 6.525 8.7625 10.62 13.879 14.008 1.1525 0.83125 1.1525 2.625 1.2175 4.0938-0.065 1.4088-1.0238 2.6238-2.1112 3.4512-1.0888 0.45125-1.9212-0.31625-2.88-0.50875-1.2788-1.0225-1.0225-2.6212-0.63625-3.965 1.8525-0.8975 1.1488-2.4312 0.44625-3.7738-5.95-3.07-11.321-9.0825-12.089-15.992-0.45 0.38375-0.8325 0.705-1.535 0.705-0.32-1.9825 1.535-3.135 1.3412-5.1162-0.96-0.64125-2.3675 1.6-3.2-0.06375v-0.32c0.64 0.44625 1.345-0.065 1.8588-0.31875 0.63875-0.51375 0.7025-1.345 1.535-1.4075 0.89375 0.83 1.4712-0.38625 1.6612-1.025 0.64-1.7912 1.4075-4.0288 3.2625-5.0525v-0.32125c-1.6625-0.255-3.5812-0.44625-4.54-1.7888-0.2575-0.96125 0-1.9838 0.63875-2.6875 0.70375-0.38375 1.665-1.47 2.5588-0.64 1.0225 1.4075-3.0062 2.88 0.32 2.88 1.4062 0.06375 2.7488-0.70625 3.39-2.0488 1.1488-4.4138-1.6-7.865-4.5425-10.81-12.281 3.6475-25.969-0.31875-35.115-7.93-8.7 8.3138-21.811 11.449-34.476 8.8262-1.6 3.2-3.0712 6.6525-3.7725 10.362 1.15 1.9188 3.5812 1.7925 5.4362 1.7262 0.12625-0.64 1.2138-0.95875 0.70375-1.7262-0.5125 0.1275-0.95875 0.38125-1.5362 0.255-0.38375-0.44875-1.0225-1.3425-0.1925-1.7912 0.64125-1.0862 1.5375-0.255 2.365 0.065 0.70625 0.63875 1.09 1.5988 1.2175 2.5575-0.25375 1.2162-1.0238 2.2388-2.1738 2.75-0.8325 0.57875-2.2388 0.25625-3.135 0.32125 1.28 1.9838 2.5588 4.0938 3.7738 6.0775 0.83375-0.38625 1.7288 0.0625 2.0488 0.76625 0.19125 0.64125 0.44625 1.47 1.2138 1.535 0.70375 0.12875 1.28-0.255 1.7262-0.70375 0.1925 0.95875-0.19125 1.9838-1.0875 2.2412-0.83 0.2525-0.95875-0.77-1.535-0.77 0.12875 1.4712 0.51125 3.07 0.06375 4.6688-0.255-0.12625-0.63875-0.96-1.2138-0.8325-0.32125 0.70625 0.1275 1.6 0 2.4962-1.345 8.3812-9.275 10.936-14.136 17.076 0.4475 0.96125 1.535 1.3475 1.855 2.4338 0.38375 1.0225-0.5125 1.7888-1.215 2.1725-1.0875 0.38375-2.495 0.1925-3.52-0.19-0.89375-0.70625-1.4062-1.9825-1.2775-3.2625 0.70375-4.8612 6.1388-5.1175 8.89-8.125 5.1812-4.54 7.2275-12.472 4.6075-18.995-1.1512-2.6225-3.3262-5.3725-5.7562-6.91 0.465-4.9012 1.9975-9.59 4.1088-13.966-14.079 11.124-23.131 28.344-23.131 47.64 0 32.938 26.374 59.831 59.112 60.673-0.115-0.5-0.10625-1.1025 0.1425-1.4725-4.9262-5.5-15.672-1.7262-18.232-10.169-9.8475 1.0875-17.46-5.6912-23.345-12.604-5.245-8.44-10.936-21.166-3.7738-30.571 1.2138-0.83125 4.03-2.8788 4.7975-0.19 0.38375 0.89375 0.255 1.7238 0.12625 2.6225-0.44625 0.82876-1.4075 0.5075-1.9175 0.255-0.7675-0.38625-0.63875-1.4088-1.28-1.79-2.8138 4.285-3.0712 10.489-2.11 15.669 1.535 7.3525 5.9488 13.879 11.961 18.615 4.86 3.5825 10.872 8.3138 17.528 4.925 0.57375 0.95875 1.2138 1.7912 1.725 2.7488 1.4712-0.9575 2.685-2.5588 2.75-4.3488 0-1.2775-0.70375-2.305-1.5362-3.0712 1.4075-0.1925 2.495 0.70125 3.1975 1.7938 0.19375 0.76625 0.51375 1.85 0.06625 2.6838-1.025 1.855-2.56 2.8812-4.415 3.7088 0.13 1.0225 1.4088 2.115 2.3062 2.8162 1.275 0.63875 2.9388 0.63875 4.2838 0 1.0238-0.575 1.345-1.6625 1.7238-2.6238 0.705 0.64125 1.2825 2.4312 0.705 3.7738 0.32125 0.63875 1.6012 0.385 2.3688 0.8325 1.7262 0.89375 3.1975 1.4688 4.7325 2.6225 1.92-1.47 3.965-3.2638 6.5238-3.9662 0.2575-0.8925 0.2575-1.8538 0.89625-2.56l0.95875-0.50875c0.4475 0.96 1.1512 1.9162 2.11 2.3638 2.305 0.44625 4.2225-1.3412 5.6288-2.6838-1.6612-1.7288-5.2425-1.6612-5.1788-4.99 0.1275-0.8325 0.44625-1.6 1.0225-2.2375 0.95625-0.96 2.5588-0.83125 3.7725-0.51125-1.0875 0.89375-1.9175 2.3025-1.535 3.7738 0.32125 0.95625 1.4088 1.4688 2.2388 1.9175 0.96125-0.32 0.64-1.7275 1.535-2.0488 8.6338 2.8162 16.314-2.3625 21.492-8.5062 5.8838-6.14 8.7638-14.709 7.6738-23.92-0.1925-1.535-0.32-2.8162-0.57375-4.2863-0.38375-0.70625-0.70625 0.19-1.0238 0.19-1.4062 0.1925-3.0062-0.50875-3.8388-1.7238-0.4475-1.1538 0.385-1.9862 1.1525-2.4962 0.5125-0.4475 1.1538 0 1.7262 0 4.1575 4.1588 4.7962 10.236 4.2875 16.311-1.985 10.808-8.7012 19.762-17.911 25.458-3.3238 1.79-6.91 3.39-10.999 3.0038-2.1125 4.7338-7.6775 6.2062-12.796 6.1412-1.9175 0.5125-3.7712 1.6-5.0525 3.135 0.5775 0.44625 0.19125 1.2138 0.32125 1.855-0.0062 0.007-0.0125 0.015-0.0175 0.0225 32.248-1.385 58.055-28.049 58.055-60.631 0-19.366-9.1175-36.642-23.285-47.762" transform="matrix(.8 0 0 -.8 327.2 439.36)"/><path d="m419.01 378.35-5.423 2.201-0.307 0.153c-1.638 0.818-3.481 0.513-5.27 0.563l-23.896-0.05-0.412 0.154-0.256 11.717-6.548 2.66c0.153-2.047-1.586-3.377-3.122-4.247l0.206-0.154c-0.052-1.841 2.25-1.841 3.069-2.865 0.767 0.256 0.358 1.329 1.331 1.329 0.204-0.152 0.308-0.357 0.256-0.612-0.46-0.41 0.255-0.973 0.41-1.434l0.152-0.512-0.103-1.533c-0.306-0.871-1.075-1.537-1.943-1.741l0.305-2.968c-0.05-0.46 0.429-0.887 0.173-1.314l-0.888 0.7c-1.126 0.307-0.666-1.33-1.227-1.894l-0.667-1.789 17.601-0.205 30.959-0.052-4.4 1.893z" fill="#2e67b1"/><path d="m366.76 364.83c-0.051-0.407-0.41-1.43 0.307-1.634l0.359-0.358 0.562-1.536-0.102-1.33c1.279 0.411 2.918 0.357 4.093-0.257 1.075 0.358 2.1 1.074 3.377 0.668 1.33-1.333 2.867 0.614 4.555-0.155 1.688-1.228 4.094 0.715 5.937-0.666 1.329 0.666 3.12 0.869 4.552 0.153 1.28 0.769 3.172 0.412 4.35-0.049 1.227 0.663 3.171 1.123 4.4 0.253v15.046h-25.022c-1.408-1.587-2.43-2.484-3.633-3.582l-2.047-1.587c-0.935-0.652-1.758-1.34-2.487-1.911-0.128-0.099-0.255-0.197-0.378-0.291 0.307-0.715 1.023-1.637 1.229-2.3l-0.052-0.464z" fill="#9fcbed"/><path d="m120.77 80.299l-28.852 0.318v30.193c0.032 2.67 0.053 5.36 0.074 8.07 0.174-0.29 0.476-0.27 0.694-0.26 0.218 0.02 0.319 0.01 0.382-0.1-0.49-0.44-0.817-1.11-0.986-2.06l-0.037-0.2 0.853 0.06c-1.101-1.47-0.685-3.55-0.627-5.01l0.008-0.15h0.151c0.665 0 1.414 0.52 1.867 1.29l0.019 0.04v0.05c0 0.34-0.039 0.78 0.041 1.12 0.308-0.4 0.414-1.22 1.131-1.28l0.059-0.01 0.047 0.04c0.975 0.71 0.797 2.08 0.666 3.07l-0.024 0.2c0.044 0.35-0.126 0.68-0.277 0.96-0.195 0.37-0.293 0.59-0.143 0.79l0.623-1.69 0.057-0.15 0.152 0.06c0.978 0.39 0.877 1.57 1.262 2.33 0.075-0.09 0.116-0.22 0.154-0.36 0.074-0.26 0.186-0.67 0.729-0.57h0.027l0.024 0.02c0.85 0.51 0.82 1.35 0.793 2.09-0.025 0.86-0.003 1.4 0.823 1.6l0.03 0.01 0.03 0.01c0.3 0.22 0.29 0.48 0.28 0.67-0.01 0.13-0.01 0.22 0.05 0.29 0.38-0.19 0.71-0.65 0.83-1.18l0.03-0.15 0.16 0.03c0.42 0.09 0.54 0.46 0.65 0.76 0.06 0.2 0.12 0.38 0.25 0.49l0.12 0.1-0.1 0.12c-0.52 0.64-0.15 1.62-0.29 2.48l-0.01 0.06c0.04-0.03 0.07-0.05 0.1-0.07 0.23-1.15 0.34-2.88 1.87-3.1 0.33-0.15 0.81-0.23 1.02-0.52-1.71 0.03-2.91-0.9-4.07-1.8-0.59-0.46-1.2-0.94-1.889-1.3l-0.033-0.01-0.021-0.03c-0.724-0.99-1.097-1.97-1.172-3.07-1.458-0.84-0.87-2.53-2.053-3.35l-0.096-0.07 0.032-0.11c0.488-1.58-0.982-2.6-0.657-4.38-1.168-1.14-0.149-2.7-1.277-3.71l-0.056-0.05 0.003-0.08c0.125-1.53-0.936-2.18-0.711-3.73l-0.181-0.322c-0.593-1.035-1.258-2.206-0.959-3.582l0.014-0.057 0.042-0.033c0.619-0.486 1.153-0.131 1.788-0.215 0.452-0.836 0.586-1.864 0.703-2.869-0.842-0.93-2.505-1.935-2.1-3.549l0.914-2.951 0.188 0.196c1.683 1.743 5.23 0.782 6.431 3.242v0.004 0.005c0.39 1.11 0.11 2.449 0.71 3.35 0.55-0.041 1.12 0.076 1.58 0.342l0.06 0.031 0.02 0.063c0.33 1.107 0.33 2.699 0.45 3.775 0.66 1.499 2.01 2.345 3.3 3.162 1.66 1.038 3.47 2.068 3.98 4.428 0.82-0.52 1.66-0.23 2.66-0.07 1.33 0.22 2.59 0.42 3.46-0.79l0.01-0.01 0.01-0.01c1.84-1.84 4.29-2.87 6.45-4.239-0.51-1.593-0.21-3.538 0.71-4.58 0.9-0.839 2.07-1.105 3.13-1.528-0.25-1.112-0.53-3.506 1.18-4.701l0.01-0.008 0.02-0.006 3-1.343 0.08-0.035 0.07 0.042c1.02 0.582 0.95 2.088 0.78 2.801l-0.02 0.051-0.04 0.037c-0.99 0.755-0.99 1.975-1 3.266-0.01 1.411-0.01 2.869-1.38 3.711-0.22 0.181-0.54 0.308-0.87 0.435-0.88 0.335-1.4 0.599-1.11 1.424l0.01 0.027v0.026 0.072c1.19-0.527 2.64-1.573 3.73-2.359l0.11-0.08 0.3-0.217-0.05 0.367c-0.19 1.461 0.39 2.671 0.32 3.957v0.06l-0.05 0.05c-0.85 0.73-1.07 1.82-2.08 2.44 0.4 0.91 0.01 1.72-0.34 2.43-0.27 0.56-0.53 1.09-0.41 1.62v0.01 0.01c0.13 0.91-0.06 1.45-0.22 1.93-0.19 0.56-0.34 1.01 0.02 1.93l0.03 0.08-0.05 0.07c-0.29 0.41-0.07 0.87 0.15 1.35 0.19 0.4 0.38 0.81 0.25 1.19-0.09 0.21-0.27 0.39-0.55 0.54 0.04 0.57-0.09 1.47-0.6 1.77l-0.02 0.01h-0.02c-0.37 0.1-0.37 0.27-0.33 0.69 0.02 0.2 0.04 0.43 0 0.66l-0.01 0.04-0.02 0.02c-0.59 0.84-1.39 1.28-1.51 2.3l-0.02 0.21-0.2-0.09c-0.23-0.1-0.31-0.01-0.5 0.27-0.01 0.02-0.03 0.04-0.04 0.06 0.07-0.04 0.16-0.07 0.25-0.04s0.15 0.11 0.19 0.22l-0.02-0.04 0.33 0.45c0.6-1.7 1.6-3.02 2.84-3.76l0.12-0.07 0.09 0.11 0.29 0.37c0.5-0.98 1.25-1.19 1.98-1.38 0.71-0.19 1.38-0.37 1.88-1.27l0.01-0.03 0.03-0.02c0.45-0.36 1.06-0.61 1.43-0.24l0.01 0.01c0.41 0.55 0.15 0.85 0.16 1.37l0.76 0.11 0.17 0.02-0.04 0.17c-0.31 1.56-0.92 3-1.5 4.39l-0.42 1.01-0.04 0.08-0.08 0.02c-0.25 0.04-0.24 0.08-0.21 0.3 0.03 0.19 0.07 0.45-0.16 0.67-1.52 1.64-3.42 3.68-6.02 4.57-0.27 0.41-0.25 0.89-0.23 1.41 0.04 0.73 0.07 1.5-0.82 1.98l-0.1 0.06-0.08-0.07c-0.4 0.56-0.87 0.87-1.41 0.93l-0.12 0.01-0.05-0.12c-0.14-0.37-0.57-0.15-0.98 0.02-0.18 0.08-0.35 0.16-0.52 0.2l-1.31 1.19-0.11 0.1-0.11-0.11c-0.02-0.01-0.03-0.03-0.05-0.04l-0.51 0.51v-0.39c0-0.04 0-0.05-0.12-0.1-0.06-0.03-0.14-0.07-0.21-0.16-0.39 0.18-0.74-0.1-1.01-0.31-0.15-0.13-0.31-0.26-0.46-0.3l-0.1-0.02-0.02-0.1c-0.05-0.25-0.22-0.29-0.54-0.35-0.18-0.04-0.37-0.08-0.54-0.19l-0.09-0.06 0.02-0.11c0.27-1.08 1.58-1.7 1.41-2.75l-0.02-0.09 0.07-0.06 1.73-1.43-0.17-0.2c-0.64 0.61-1.67 0.9-2.75 0.76h-0.04l-0.04-0.03-0.72-0.55-0.78 0.78c0.39 0.96 1.42 1.23 1.75 2.35l0.02 0.06-0.03 0.06c-0.8 1.66-2.62 1.61-3.62 2.54l-0.09 0.08-0.1-0.07c-0.32-0.21-0.46-0.11-0.7 0.06-0.21 0.16-0.47 0.34-0.88 0.23-1.01 0.24-1.71-0.51-2.67-0.39h-0.02-0.02c-0.39-0.07-0.61-0.35-0.8-0.61-0.25-0.33-0.43-0.57-0.92-0.42l-0.13 0.04-0.06-0.13c-0.3-0.64-1.59-0.36-1.97-1.03-0.12-0.2-0.12-0.46-0.03-0.79 0.11-0.6 0.52-1.1 0.92-1.58 0.65-0.79 1.17-1.42 0.44-2.32-0.39 0.78-1.16 1.16-1.68 1.56l-0.04 0.04h-0.04c-0.97 0.05-1.96 0.32-2.91 0.18 0.42 0.65 1.32 1.5 1.2 2.33-0.05 0.32-0.24 0.6-0.58 0.84l-0.02 0.02-0.02 0.01c-0.36 0.13-0.92 0.66-1.43 0.51-0.2-0.06-0.37-0.21-0.49-0.46-0.68-1.5-2.448-2.34-2.384-4.21l-0.457-0.27c-0.663 0.66-1.53 1.48-2.489 2.17l-0.179 0.12-0.288-0.92c-0.327 0.42-0.789 0.79-1.068 0.99l-0.055 0.04-0.07-0.01c-0.706-0.15-0.659-0.83-0.619-1.38 0.024-0.35 0.05-0.72-0.113-0.85-0.12-0.1-0.368-0.1-0.731-0.01l-0.097 0.02-0.065-0.08c-0.485-0.55-0.375-1.39-0.225-2.05l0.01-0.07 0.055-0.03c0.33-0.23 0.382-0.36 0.381-0.42-0.003-0.11-0.204-0.24-0.395-0.37-0.296-0.2-0.664-0.44-0.695-0.86l-0.006-0.04 0.024-0.04 0.701-1.29c-0.479-0.36-0.9-0.74-1.055-1.27 0.065 8.53 0.115 17.2 0.305 25.59l3.197-1.85c0.896-0.83 0.574-2.69 1.852-3.45 0.77-0.84 2.048-1.03 3.266-1.03 0.45 0.38-0.2 0.9-0.13 1.41 0.19 0.57 0.32 1.21 0.83 1.53 1.09 0.39 2.5 0.26 3.46-0.32-1.15-1.66-3.46-3.26-4.1-5.43-0.57-1.15 0.19-2.24 0.52-3.26 0.51-1.15 1.98-1.28 3-1.73 1.66-0.26 3.39 0.32 4.48 1.4 0.13 0.96-1.22 1.1-1.73 1.99-0.38 0.45-0.19 1.21 0.19 1.53 0.71-0.76 1.35-1.34 2.24-1.66 1.02 1.92 3.33 1.47 5.05 1.98 5.63-0.25 10.05-3.9 14.01-7.16v-0.32c2.88-2.56 4.8-5.57 6.52-8.83 2.31-5.56 3.01-12.86 1.8-18.93-1.54-0.7-3.84-0.89-4.54-2.943-0.71-1.474 0.32-2.622 1.15-3.713-0.58-0.955-1.02-2.237-0.83-3.451-0.07-1.153 1.27-2.108 0.51-3.199-3.01-1.982-6.08-4.989-8.58-7.483l-3.7-0.062zm-25.971 15.222c0.704 1.343 2.108 1.474 3.133 2.688l0.193-1.215c-1.217-0.26-2.302-1.026-3.326-1.473zm4.797 4.411c1.984 1.668 4.414 3.008 6.014 4.988-1.41-2.3-3.01-4.66-6.014-4.988zm3.344 0.378l0.03 0.02-0.02-0.02h-0.01zm21.92 20.29l-0.83 0.31c-0.38 1.73-3.01 0.26-2.11 2.69-0.07 0.89 1.02 1.53 1.92 1.09-0.13-1.41 0.51-2.75 1.02-4.09zm-22.45 3.92h-0.03c-0.28 0.07-0.46 0.17-0.54 0.29 0.13 0.06 0.27-0.02 0.51-0.24 0.02-0.02 0.04-0.04 0.06-0.05z" transform="matrix(.8 0 0 -.8 327.2 439.36)" fill="#fff"/><path d="m425.86 364.17c-1.125-1.024-0.972-3.069-2.304-3.94-1.687 0.203-1.123-2.15-2.863-1.944-1.588 0.255-2.662-1.585-4.145-0.358-0.257 0.358-1.127 0.049-1.586 0.257-0.974 0.509-1.128 1.841-2.304 1.737-0.769 0.511-1.738 1.126-1.433 2.354-0.511 0.409-1.176 0.821-1.228 1.536-0.205 0.614-0.102 1.329 0.205 1.741-0.41 0.613-1.024 1.533-0.562 2.352 0.255 1.331 2.148 1.432 2.148 2.97 0.459 1.123 1.893 0.305 2.046 1.634 0.717 0.821 2.047 0.258 2.714 1.231 1.123 0.512 2.198-0.666 3.325 0.101 1.329 0.306 1.688-1.023 2.302-1.843 0.767 0.307 1.435-0.101 1.944-0.563 0.973-0.817-0.254-2.658 1.485-2.71 1.328-1.279-0.461-2.97 0.256-4.555"/><path d="m415.12 368.73-0.357-0.758-0.258-0.215c-1.024 0.052-0.409-1.177-1.178-1.535 0.565-0.82 0.206-2.201 1.228-2.559l0.103-0.153c0.013-0.022 0.025-0.046 0.038-0.069l0.068 0.432-0.349 0.337 0.476 0.072 0.21 0.436 0.219-0.429 0.479-0.065-0.342-0.342 0.085-0.474-0.428 0.218-0.402-0.217c0.226-0.449 0.408-1.012 1.073-0.872 0.536-0.968 1.146-0.455 1.781-0.341l0.077 0.463-0.352 0.334 0.477 0.074 0.21 0.435 0.218-0.43 0.48-0.063-0.341-0.344 0.087-0.474-0.432 0.22-0.391-0.211c0.263 0.041 0.529 0.011 0.795-0.224 0.847 0.563 1.817 0.974 2.57 1.65l-0.318 0.16-0.427-0.23 0.078 0.476-0.352 0.334 0.478 0.078 0.208 0.435 0.221-0.432 0.481-0.062-0.345-0.343 0.063-0.335c0.167 0.159 0.328 0.327 0.464 0.52-0.309 0.766 0.513 1.279 0.562 1.995-0.255 0.51-0.511 1.022-0.41 1.688-0.715 0.204-0.869 1.331-1.687 1.23-1.074 0.664-1.996 0.714-3.275 0.767-0.254-0.666-1.074-0.767-1.585-1.177" fill="#edd372"/><path d="m90.832 37.127c-13.006 9.166-20.594 9.482-34.027 8.951 0 0-0.928 1.306-1.436 2.26-0.024 0.045-0.042 0.091-0.058 0.133-0.177 0.413-1.285 3.632-1.249 4.14 0.062 0.382 0.375 1.462 1.079 1.268l-0.385-1.022c-0.079-0.281-0.058-0.549-0.004-0.804 0.269-0.882 0.714-1.537 1.668-2.084 0.84-0.479 1.647-0.182 2.43-0.182 1.6 0 2.004 1.493 4.414 2.877 2.411 1.388 7.484 3.07 7.484 3.07l0.143-1.64c0.96 0 4.205-2.579 5.23-3.41 1.386 1.491 4.052 0.536 6.293 0.107 2.239-0.424 5.134-0.408 8.994 0.914 0 0 3.454-1.883 7.483-0.767 6.309 1.744 6.869 0.088 7.739-0.51 1.07 0.638 3.7 2.392 5.64 3.447l-0.06 18.23-2 0.387s10.91 4.541 12.17 5.44c1.26 0.895-1.02-5.013-1.29-4.928-0.28 0.085-1.52 0.3-1.86 0.514-0.34 0.213-1.07 0.084 0-1.088 1.07-1.173 0.89-3.741 1.02-4.414-1.17 0.213-1.59-0.683-2.04-1.024-0.45-0.34 0.14-2.464 0.38-3.068 0.24-0.603 0.3-0.94 0.52-1.471 0.21-0.532 1.02 1.279 1.02 1.279s2.04-1.079 2.81-1.152c0 0 1.65-2.992 2.24-3.9 0 0-1.54 0.311-2.79-1.301-1.75-2.271-0.91-5.396 1.36-6.649s3.56 0.608 4.09 1.268c0.53 0.663 0.41 1.563 0.41 1.563s0.95-0.653 0.89-1.6c-0.05-0.945-2.59-5.213-2.87-5.627-0.29-0.415-1.44-2.294-1.87-2.188-0.42 0.108-0.65 0.253-2.12 0.688-7.57 1.6-19.91 0.433-31.448-7.707zm-37.736 63.213c-0.705 0.01-1.406 0.19-2.098 0.67-1.295 0.89-3.514-0.1-4.234-0.18l-0.498-0.45c-1.597 2.64-2.833 13.87 4.443 23.47 7.275 9.59 14.889 12.81 19.529 12.74 0.297-0.22 1.121-1.08 1.121-1.08s0.398-0.86 1.116-0.46c0.72 0.4 1.222 0.4 1.816 0.63 0.59 0.22 0.999 0.92 1.125 1.1 0.594-0.9 0.771-1.73-0.189-2.88-0.963-1.16-1.728-1.84-2.049-1.92 0.96-0.56 2.784-0.9 3.789-0.83 1.009 0.06 2.755 0.14 3.248 1.21 0.492 1.08 2.428 3.43-0.453 6.94-1.414 1.73-2.038 2.36-2.309 2.54 0.996 0.45 1.465 0.97 2.158 0.63 0.735-0.35 3.115-1.94 2.653-3.14 0.767-0.19 2.044-0.01 2.492 0.52 0.447 0.52 1.246 2.75 1.469 3.1 0.217 0.35 0.416 0.45 1.152 0.86 0.735 0.42 2.881 1.54 2.881 1.54l-0.512-44.2c-1.84-0.96-4.142-0.77-5.103 0.43-1.519-0.96-3.675-1.26-5.034 0.18-2.641-1.54-4.641-1.32-6.16-0.44-2.201-0.99-4.458-1.29-6.22-0.17-1.934-0.72-3.852-1.01-5.452 0.03-2.03-0.42-3.726-1.214-5.166-0.09-1.159-0.33-2.342-0.77-3.515-0.75z" transform="matrix(.8 0 0 -.8 327.2 439.36)" fill="#9b1c1f"/><path d="m72.414 81.844c-1.585-0.028-2.689 0.28-3.967 0.502-0.45 0.382-1.217 0.446-1.41 1.084l2.238 0.961c0.897 0.32 2.048 1.214 2.688 1.599 0.192 0.384 0.768 1.022 0.896 1.473 0.319 0.704 0.958 1.277 0.83 2.109 0.257 0.51 0.321 2.282-0.511 3.518-0.128 0.896-1.471 1.983-2.239 2.556-0.96 1.088-2.492 1.602-4.031 1.217l-0.189 0.192 0.318 0.32 0.469 0.236 0.748 0.598c2.622 1.342 5.907 0.808 8.527-0.279l1.811-1.172 0.726-1.112 0.514-0.507 1.15-2.561 0.063-3.07-0.574-2.559-1.153-1.984-0.511-0.51c-0.702-0.894-1.983-1.406-2.879-2.109-1.439-0.348-2.563-0.486-3.514-0.502zm-4.598 24.206c-0.644 0-1.4 0.14-1.998 0.33 0 0-2.356 0.61-3.004 0.62-0.642 0.02-2.508-0.09-3.068-0.09-0.557 0-1.08 1.49-1.508 2.28-0.426 0.78-1.363 1.42-1.443 2.06-0.081 0.65-0.178 2.22-0.375 2.69-0.196 0.47 0.406 1.15 0.641 1.71 0.233 0.56 1.752 0.73 3.019 1.43 1.27 0.7 2.306 6.22 2.16 7.73-0.142 1.53-1.278 1.33-0.959 2.37 0.32 1.04 1.025 0.56 2.336 0.92 1.311 0.35 1.804-1.05 2.393-1.42 0.587-0.37 1.348 0.09 2.179 0.23l1.026-1.26 0.381-1.54-0.381-1.02h1.318c0 0.32 0.367 1.24-0.082 1.56 0 0-1.445 2.05-0.342 2.4 0.554 0.18 1.678 0.4 2.879 0 1.198-0.4 2.243 0.16 2.219-0.96s1.36-1.91 1.744-2.81c0.481 0.48 0.937 1.12 0.658 1.59-0.281 0.47-0.785 0.95-0.146 1.99 0.64 1.04 1.409 0.64 2.687 0.32s2.159-1.37 2.621-1.28c0.465 0.1 0.755-2.33 0.432-4.01 0.278-1.85 0.961-4.96 0.281-8.72-0.575-3.16-1.879-3.75-4.197-5.11-2.32-1.36-5.389-1.15-6.428-1.15-1.04-0.01-3.726-0.66-4.447-0.8-0.18-0.04-0.381-0.06-0.596-0.06z" transform="matrix(.8 0 0 -.8 327.2 439.36)"/><path d="m67.822 107.23c-0.305 0.02-0.61 0.09-0.914 0.25-2.555 1.09-6.776-0.64-7.865 2.69 0.704 1.28-0.256 2.17-1.09 2.94-0.51 1.22 1.089 1.03 1.729 1.34 0.063 0.64-0.831 0.07-0.957 0.51 1.022 0.97 2.493 0.77 3.836 0.97 0.77-0.39 1.535-1.48 2.56-0.77l-0.32-0.26c-0.065-0.13 0.062-0.19 0.062-0.26 0.707 0.13 1.278-1.14 1.664-0.06-0.065 0.19-0.258 0.06-0.386 0.06 0 0.13 0.001 0.26-0.125 0.32-0.513-0.19-0.641 0.52-0.641 0.84l-0.768-0.32 0.385 0.64c-0.321 0-0.638-0.07-0.832-0.32l0.641 0.7c-0.321-0.13-0.768-0.13-1.026-0.38l0.321 0.32c0.127 0 0.127 0.25 0 0.25-0.128 0-0.257 0.07-0.321-0.06-0.446-0.45-1.215-0.45-1.535 0l0.703 1.91c0.704 0.45 1.347 0.97 1.92 1.67l0.639-0.7c0.512 0.06 0.834-1.09 1.344-0.45-0.127 0.7-1.087 0.45-1.344 0.96 0.512 1.41 0.705 3.13 1.025 4.67 0.639 0.12 1.152 0.7 1.727 0.12 0.576-0.38 0.063-0.83-0.193-1.15-0.065-0.57-0.317-1.53 0.193-2.04 1.469 0.32 2.623-0.58 4.092-0.39 0.643-0.64 0.769-1.72 1.666-1.98 0.446 0.19 0.83 0.45 1.217 0.26 0.126 0.25-0.388 0.76-0.196 0.7h0.063c0.131-0.32 0.132-0.77 0.513-0.83l0.254 0.19c0 0.13 0.002 0.26-0.125 0.32h0.319c-0.064 0.38-0.193 0.7-0.448 1.02 0.639 0.07 0.32-0.76 0.832-0.7 0.064 1.6 2.045 1.98 2.557 3.45 0.64 1.09-0.321 1.86-0.576 2.69l2.24-0.32c1.984-0.89 0.766-3.39 1.344-5.12 0.51-2.3 0.705-5.18 0.576-7.8-1.6-4.16-6.272-5.25-10.557-5.18l0.321 0.83c-0.575 0.32-1.086-0.96-1.727-1.28-0.958 0.1-1.882-0.31-2.797-0.25zm-10.379 4.34l0.065 0.52 0.129-0.07c0.062-0.19-0.13-0.38-0.194-0.45zm5.453 8.36l-0.082 1s0.282 1.32 0.282 1.56 0.201 2.56 0.201 2.56l-0.561 1.08 0.2 0.56 0.919 0.07 1.137-0.86 0.303-0.65-0.479-1.56 0.039-1.6-1.959-2.16zm11.497 1.18l-0.743 0.34-0.519 0.84h-1.16l-0.201 0.2 0.082 0.6 0.759 1.32-1.476 1.08 0.156 0.8 2.559-0.08 0.718-0.65s0.338-0.68 0.403-1.03c0.063-0.36 0.383-0.87 0.383-0.87l0.496-0.57v-0.72l-0.641-0.88-0.816-0.38z" transform="matrix(.8 0 0 -.8 327.2 439.36)" fill="#fff"/><path d="m386.82 361.36c1.636 0.562 3.019 1.686 3.683 3.223 0.82 1.789 0.666 4.091-0.512 5.731l-1.483 1.483c-1.383 0.819-3.479 1.433-4.963 0.715 0.869-0.204 1.686-0.818 2.304-1.379 1.276-1.331 1.942-3.534 1.534-5.426-0.359-1.892-2.047-3.632-3.943-4.145 0.923-0.559 2.356-0.357 3.38-0.202" fill="#c7c8ca"/><path d="m85.295 51.469c-3.123-0.003-5.979 1.892-9.047 0.75 0 5.885-0.062 10.809 0.131 16.119l1.213 0.385c4.351-0.195 9.275-1.6 13.178 0.83l-0.067-16.696-3.199-1.023c-0.755-0.264-1.488-0.365-2.209-0.365zm10.055 0.32c-1.414 0.034-2.814 0.317-4.133 0.94 0.065 5.502-0.194 10.939 0.254 16.824 1.407-0.192 2.687-0.831 4.031-1.153 4.029-1.087 7.288 2.11 11.128 0.832-0.19-6.396 0.38-11.064-0.06-17.013-1.22 0.893-2.82 1.213-4.35 1.023-2.12-0.88-4.514-1.51-6.87-1.453zm11.79 0.75v16.82c-2.11 1.534-5.3 0.193-7.673-0.447-3.135-0.639-5.694 0.702-8.506 1.215l-3.135-1.215c-2.366-0.702-4.669-0.384-6.971-0.064-1.537 0.638-3.776 0.637-5.119-0.448l-0.127-15.673h-0.255l0.062 16.505c2.496 1.022 5.565 0.255 7.994-0.32 2.945-0.574 5.376 1.664 8.319 1.342 3.198-1.406 8.057-1.79 11.251 0.193l-0.12 0.129c-3.33-1.152-7.422-1.601-10.557 0.061l0.193 0.258c2.815-1.279 6.395-1.602 9.344-0.512l0.38 0.383h-0.9c-0.74-0.22-1.53-0.376-2.341-0.461 3.481 0.845 7.721 2.345 11.171 0.59v-16.823l-0.52 0.129-0.12 16.694c-1.86 1.28-4.28 0.575-6.33 0.191 1.72-0.255 4.41 0.577 5.94-0.703l0.07-17.141c-0.26-0.131-0.57 0.129-0.9 0.256v16.629c-0.64 0.381-1.28 0.768-2.04 0.768-0.96-0.128-2.12 0.255-2.88-0.319 1.34 0.061 3.39 0.447 4.41-0.707-0.19-6.011 0.39-11.255-0.13-17.33h-0.51zm-32.617 1.213c0 4.732-0.447 11.256 0 16.375l0.381 0.449c3.728 1.128 7.566-1.162 11.346-0.971-0.794-0.17-1.618-0.259-2.518-0.183-2.877 0.576-6.331 1.601-8.892-0.063l-0.127-15.607h-0.19zm11.727 15.853c1.179 0.255 2.283 0.688 3.432 1.032-1.135-0.687-2.281-0.973-3.432-1.032zm-12.752-15.085l-0.129 16.437c1.409 1.09 3.903 0.514 5.565 0.514 2.111-0.447 4.097-1.218 6.334-1.344-1.214 0-2.367 0-3.391 0.449-2.366 0.255-5.629 1.726-7.865-0.129v-14.519c-0.129-0.32 0.125-1.28-0.514-1.408zm-0.859 0.707c-0.052-0.011-0.103-0.008-0.149 0.011-0.061 0.026-0.112 0.082-0.144 0.178 0.128 4.414-0.253 10.873 0.322 15.543 0.384-4.99 0.064-10.618 0.32-15.414-0.036-0.144-0.195-0.288-0.349-0.318zm38.281 0.062l-0.26 0.127v15.67l-0.45 0.385 0.83-0.512-0.12-15.67zm-13.752 14.953c-1.413 0.048-2.786 0.335-3.904 0.908 1.735-0.432 3.472-0.744 5.322-0.879-0.472-0.035-0.947-0.045-1.418-0.029zm27.522 27.479c-0.16 0.016-0.3 0.101-0.45 0.193-0.04 0.024-0.08 0.043-0.12 0.066v0.043c0 0.147 0 0.283 0.02 0.354 0.06-0.055 0.12-0.118 0.18-0.178 0.2-0.184 0.34-0.322 0.37-0.478z" transform="matrix(.8 0 0 -.8 327.2 439.36)" fill="#edd372"/><path d="m81.438 54.875c-0.524 0-0.878 0.086-1.118 0.266-0.358 0.271-0.425 0.505-0.445 0.953v0.101c0 0.91 0.413 1.11 1.287 1.326l0.074 0.018c0.362 0.085 0.67 0.161 0.67 0.662 0 0.241-0.156 0.432-0.353 0.432-0.139 0-0.264-0.076-0.326-0.194-0.052-0.102-0.053-0.279-0.053-0.525h-1.231v1.1c0.388 0.29 0.913 0.441 1.578 0.441 1.133 0 1.663-0.457 1.663-1.443v-0.022c0-0.41-0.061-0.754-0.422-1-0.279-0.184-0.733-0.304-1.061-0.394-0.509-0.134-0.541-0.338-0.541-0.512 0-0.23 0.142-0.383 0.356-0.383 0.297 0 0.363 0.353 0.363 0.563v0.007h1.162v-0.951c-0.451-0.301-0.96-0.445-1.603-0.445zm17.839 0.002c-1.178 0-1.617 0.389-1.617 1.33v1.918c0 0.95 0.442 1.33 1.617 1.33 1.143 0 1.613-0.383 1.613-1.33v-1.918c0-0.944-0.44-1.33-1.613-1.33zm-14.904 0.088c-0.081 0.441-0.588 3.17-0.588 3.174-0.007 0.031-0.015 0.068-0.025 0.105-0.028 0.15-0.069 0.316-0.188 0.424v0.697h1.408v-0.689c-0.111-0.054-0.185-0.149-0.185-0.289 0-0.05 0.012-0.103 0.023-0.153l0.016-0.062h0.064 0.684 0.064l0.016 0.062c0.009 0.045 0.024 0.095 0.024 0.153 0 0.135-0.065 0.224-0.168 0.285v0.693h1.634v-0.689c-0.161-0.099-0.214-0.353-0.238-0.469l-0.652-3.242h-1.889zm9.455 0v0.697c0.15 0.123 0.156 0.29 0.156 0.44v0.039 2.047 0.042c0 0.152-0.006 0.321-0.156 0.442v0.693h1.57v-0.695c-0.15-0.12-0.156-0.296-0.154-0.482v-0.051-0.08h0.08 0.506c1.14 0 1.373-0.53 1.373-1.325v-0.361-0.045c0.008-0.196 0.028-0.797-0.418-1.137-0.29-0.225-0.79-0.224-1.154-0.224h-0.027-1.776zm7.662 0v0.697c0.15 0.123 0.16 0.29 0.15 0.44v0.039 2.047 0.042c0.01 0.152 0 0.321-0.15 0.442v0.693h1.57v-0.695c-0.15-0.12-0.16-0.296-0.16-0.482v-0.051-0.08h0.08 0.51c1.14 0 1.37-0.53 1.37-1.325v-0.361-0.045c0.01-0.196 0.03-0.797-0.41-1.137-0.3-0.225-0.8-0.224-1.16-0.224h-0.03-1.77zm-2.213 0.736c0.187 0 0.36 0.024 0.356 0.43v2.068c0.004 0.408-0.174 0.432-0.356 0.432-0.188 0-0.363-0.024-0.355-0.432v-0.004-2.068c-0.008-0.401 0.167-0.426 0.355-0.426zm-4.033 0.057h0.08 0.135c0.442 0 0.484 0.266 0.482 0.707v0.045 0.043c0.002 0.437-0.043 0.699-0.482 0.699h-0.135-0.08v-0.078-1.334-0.082zm7.656 0h0.08 0.14c0.43 0 0.48 0.262 0.48 0.707v0.045 0.043c0 0.438-0.05 0.699-0.48 0.699h-0.14-0.08v-0.078-1.334-0.082zm-17.757 0.178h0.068 0.012 0.066l0.01 0.066 0.232 1.348 0.02 0.097h-0.096-0.469-0.093l0.013-0.095 0.227-1.35 0.01-0.066zm1.988 5.218c-0.526 0-0.881 0.086-1.121 0.266-0.356 0.271-0.425 0.503-0.444 0.953v0.102c0 0.907 0.412 1.11 1.286 1.324l0.074 0.019c0.361 0.085 0.674 0.158 0.674 0.661 0 0.236-0.154 0.429-0.358 0.429-0.136 0-0.263-0.074-0.326-0.189-0.051-0.105-0.052-0.283-0.051-0.528h-1.23v1.098c0.385 0.293 0.914 0.443 1.574 0.443 1.137 0 1.664-0.458 1.664-1.447v-0.021c0-0.405-0.062-0.753-0.42-0.994-0.28-0.185-0.732-0.306-1.062-0.395-0.513-0.14-0.543-0.337-0.543-0.514 0-0.228 0.144-0.384 0.355-0.384 0.309 0 0.365 0.358 0.365 0.564v0.006h1.162v-0.949c-0.448-0.3-0.958-0.444-1.599-0.444zm11.447 0.09v0.699c0.151 0.119 0.158 0.285 0.156 0.438v0.037 2.051 0.039c0.002 0.15-0.005 0.316-0.156 0.441v0.696h3.162v-2.055h-1.09v0.66 0.014c0 0.312-0.06 0.572-0.44 0.572h-0.13-0.086v-0.08-2.338l-0.002-0.037c-0.001-0.153 0.006-0.319 0.158-0.438v-0.699h-1.572zm-20.615 0.002v0.695c0.149 0.119 0.155 0.287 0.152 0.44v0.037 2.051 0.039c0.003 0.151-0.003 0.317-0.152 0.441v0.696h3.158v-2.055h-1.088v0.66 0.014c0 0.312-0.059 0.572-0.439 0.572h-0.137-0.078v-0.082-2.336-0.037c0-0.153 0.003-0.321 0.152-0.44v-0.695h-1.568zm3.664 0v0.695c0.149 0.119 0.154 0.287 0.154 0.44v0.037 1.846c0.01 0.473 0.047 0.831 0.41 1.15 0.324 0.284 0.787 0.32 1.153 0.32 0.367 0 0.828-0.036 1.156-0.32 0.362-0.319 0.398-0.677 0.406-1.15v-1.846-0.033c-0.001-0.148 0.007-0.324 0.178-0.449v-0.69h-1.49v0.692c0.154 0.118 0.166 0.282 0.17 0.431v0.049 2.08c0 0.159-0.109 0.406-0.362 0.406-0.25 0-0.361-0.247-0.361-0.406v-2.08-0.037c0-0.153 0.004-0.321 0.152-0.44v-0.695h-1.566zm13.064 0v0.695c0.15 0.119 0.156 0.287 0.155 0.44v0.037 1.846c0.01 0.472 0.047 0.831 0.408 1.15 0.326 0.284 0.791 0.318 1.156 0.318 0.366 0 0.828-0.034 1.152-0.318 0.363-0.319 0.399-0.678 0.411-1.15v-1.846-0.033c-0.002-0.148 0.007-0.324 0.175-0.449v-0.69h-1.488v0.692c0.154 0.118 0.166 0.282 0.166 0.431 0 0 0.002 0.048 0.002 0.049v2.082c0 0.156-0.11 0.404-0.361 0.404-0.249 0-0.362-0.248-0.362-0.404v-2.082-0.037c0-0.153 0.006-0.321 0.155-0.44v-0.695h-1.569zm7.579 0v0.695c0.15 0.119 0.16 0.287 0.15 0.44v0.037 2.051 0.039c0.01 0.151 0 0.317-0.15 0.441v0.696h1.57v-0.696c-0.15-0.124-0.16-0.29-0.16-0.441v-0.039-2.051-0.037c0-0.153 0.01-0.321 0.16-0.44v-0.695h-1.57zm11.14 26.022l-0.26 0.548-0.6 0.092 0.44 0.416-0.09 0.596 0.53-0.287 0.54 0.277-0.11-0.594 0.42-0.427-0.59-0.082-0.28-0.539zm-3.7 1.72l-0.26 0.547-0.6 0.092 0.44 0.418-0.1 0.596 0.53-0.287 0.55 0.271-0.12-0.592 0.43-0.426-0.6-0.08-0.27-0.539zm7.44 0.242l-0.27 0.543-0.59 0.092 0.44 0.418-0.1 0.598 0.53-0.289 0.54 0.277-0.11-0.596 0.43-0.427-0.6-0.078-0.27-0.538zm-5.21 0.086l-0.26 0.547-0.6 0.092 0.44 0.418-0.09 0.598 0.53-0.289 0.53 0.275-0.1-0.594 0.42-0.429-0.6-0.079-0.27-0.539zm2.85 0l-0.26 0.547-0.6 0.092 0.44 0.418-0.1 0.598 0.53-0.289 0.54 0.275-0.11-0.594 0.43-0.429-0.6-0.079-0.27-0.539zm-1.3 1.864l-0.26 0.545-0.6 0.097 0.44 0.414-0.1 0.598 0.54-0.285 0.53 0.271-0.1-0.593 0.42-0.428-0.6-0.082-0.27-0.537zm-2.54 0.002l-0.27 0.543-0.6 0.095 0.44 0.418-0.09 0.594 0.53-0.285 0.53 0.273-0.1-0.593 0.43-0.428-0.6-0.082-0.27-0.535zm4.96 0.166l-0.26 0.545-0.6 0.095 0.44 0.414-0.1 0.596 0.53-0.283 0.54 0.271-0.11-0.593 0.43-0.428-0.6-0.078-0.27-0.539zm-3.6 1.996l-0.26 0.549-0.6 0.093 0.44 0.418-0.1 0.596 0.54-0.291 0.53 0.275-0.11-0.593 0.43-0.428-0.6-0.078-0.27-0.541zm2.64 0.16l-0.27 0.547-0.59 0.092 0.44 0.416-0.1 0.599 0.53-0.285 0.54 0.273-0.11-0.595 0.43-0.428-0.6-0.078-0.27-0.541zm-49.151 14.776c-0.312 0-0.617 0.09-0.809 0.35 0.193 0.71 0.835-0.13 1.217 0.32l-0.512 1.41c0.214-0.1 0.351-0.06 0.453 0.03-0.088-0.46 0.836-1.36 0.506-1.88-0.223-0.13-0.543-0.23-0.855-0.23zm-0.526 0.87c-0.257-0.05-0.569 0.23-0.666 0.38l0.575 0.64c0.256-0.19 0.322-0.51 0.322-0.83-0.064-0.11-0.145-0.17-0.231-0.19zm1.038 1.45c0.132 0.2 0.242 0.4 0.535 0.21l-0.127-0.13c-0.185-0.01-0.317-0.04-0.408-0.08zm-4.782 0.23c-0.359 0.01-0.726 0.17-0.822 0.36 0.639-0.12 0.703 0.9 1.533 0.51l0.065-0.32c-0.064-0.41-0.416-0.56-0.776-0.55zm19.198 6.38c-0.129 0.25-0.511 0.63-0.385 0.95 0.386-0.19 0.45-0.7 0.385-0.95zm-1.026 0.44l-0.703 0.9-0.064-0.71c-0.317 0.39-0.448 0.96-0.51 1.35l0.062-0.13c0.707 0.06 1.153-0.71 1.215-1.41zm-1.531 0.32l-0.578 1.6h0.193c0.32-0.45 0.639-1.15 0.385-1.6z" transform="matrix(.8 0 0 -.8 327.2 439.36)"/><path d="m91.041 10.648l-2.244 12.448 1.748 0.021 0.471-3.152 1.904 0.023 0.392 3.166 1.745 0.022-1.815-12.496-2.201-0.032zm-7.498 0.297l-5.398 0.66 0.222 1.817 1.897-0.231 1.291 10.561 1.617-0.197-1.291-10.561 1.883-0.234-0.221-1.815zm17.087 0.231l-0.26 1.808 1.88 0.282-1.56 10.521 1.61 0.242 1.57-10.527 1.87 0.279 0.27-1.81-5.38-0.795zm-8.548 0.869h0.023c0.04 0.547 0.086 1.414 0.19 2.562l0.394 3.551-1.396-0.021 0.535-3.533c0.134-1.148 0.2-2.014 0.254-2.559zm-19.777 0.728l-1.584 0.383 2.918 12.121 1.586-0.381-2.92-12.123zm39.485 0.497l-3.21 12.056 1.57 0.42 3.21-12.058-1.57-0.418zm-49.022 2.13c-0.26 0.011-0.54 0.067-0.844 0.18-1.615 0.603-1.996 1.984-1.252 3.982 0.232 0.623 0.608 1.208 1.057 1.645 1.058 0.939 2.289 1.208 3.414 1.797 0.54 0.245 0.932 0.632 1.187 1.318 0.33 0.89 0.206 1.484-0.439 1.723-0.754 0.281-1.301-0.456-1.69-1.606l-0.256-0.685-1.527 0.568 0.318 0.858c0.777 2.088 1.978 3.309 3.811 2.629 1.494-0.557 2.09-2.09 1.267-4.305-0.377-1.013-0.802-1.655-1.599-2.192-0.644-0.436-1.897-0.961-2.567-1.226-0.642-0.258-1.162-0.456-1.492-1.346-0.298-0.792-0.081-1.215 0.432-1.402 0.842-0.313 1.289 0.69 1.668 1.74l1.473-0.549c-0.385-1.006-1.146-3.202-2.961-3.129zm58.032 0.627c-1.05 0.045-1.88 0.854-2.46 2.338-0.25 0.62-0.36 1.307-0.31 1.932 0.15 1.405 0.89 2.429 1.33 3.623 0.24 0.54 0.27 1.09 0 1.771-0.34 0.882-0.84 1.24-1.48 0.989-0.74-0.295-0.66-1.211-0.18-2.326l0.27-0.68-1.51-0.6-0.34 0.852c-0.82 2.071-0.75 3.784 1.07 4.502 1.49 0.585 2.95-0.159 3.82-2.356 0.4-1.006 0.51-1.763 0.28-2.697-0.19-0.754-0.77-1.985-1.09-2.631-0.31-0.619-0.56-1.116-0.22-1.996 0.32-0.789 0.76-0.956 1.27-0.756 0.83 0.33 0.49 1.379 0.07 2.406l1.46 0.581c0.44-1.149 1.56-3.785-0.85-4.739-0.4-0.157-0.78-0.228-1.13-0.213zm-67.988 4.309c-0.463-0.023-0.932 0.123-1.394 0.379l-2.697 1.494 6.039 10.914 1.426-0.789-2.602-4.701 0.254-0.141c0.407-0.226 0.819-0.471 1.293-0.525 0.601-0.066 1.099 0.856 1.48 1.521 0.412 0.72 1.122 2.074 1.682 2.682l1.568-0.871-0.113-0.201c-0.525-0.129-1.964-2.83-2.213-3.282-0.581-1.046-1.261-1.677-2.197-1.369l-0.014-0.029c0.853-0.72 0.374-2.089-0.289-3.281-0.693-1.256-1.451-1.763-2.223-1.801zm-0.123 1.951c0.331 0.04 0.673 0.328 1.096 1.092 0.604 1.09 0.478 1.733 0.033 2.035l-1.119 0.619-1.666-3.013 1.059-0.584c0.205-0.107 0.399-0.173 0.597-0.149zm-9.4 3.502l-3.644 2.781 7.568 9.914 3.646-2.785-1.111-1.455-2.352 1.797-2.33-3.053 2.164-1.652-1.107-1.455-2.166 1.656-1.908-2.5 2.351-1.795-1.111-1.453zm87.901 1.371c-0.47 0.021-0.92 0.27-1.19 0.711-0.43 0.72-0.21 1.608 0.5 2.035 0.7 0.42 1.6 0.202 2.03-0.51 0.43-0.702 0.19-1.599-0.5-2.019-0.27-0.16-0.56-0.229-0.84-0.217zm14.81 3.832l-8.62 8.996 1.17 1.129 2.72-2.832c1.71-1.787 3.4-3.6 5.04-5.459l0.04 0.041-6.62 9.377 0.71 0.686 9.11-6.985 0.02 0.016c-1.79 1.716-3.52 3.478-5.24 5.268l-2.71 2.83 1.17 1.129 8.63-8.997-1.87-1.789-4.63 3.569c-0.64 0.506-1.26 1.065-2.17 1.896l-0.02-0.015c0.62-0.744 1.22-1.502 1.77-2.284l3.37-4.779-1.87-1.797zm-111.04 1.631l-1.223 1.246 5.071 6.258c0.431 0.556 0.902 1.097 1.38 1.633 0.222 0.246 0.44 0.527 0.69 0.773l-0.018 0.014c-0.248-0.245-0.532-0.454-0.787-0.67-0.541-0.469-1.096-0.928-1.658-1.35l-6.43-4.871-1.222 1.246 10.261 7.354 1.522-1.555-7.586-10.078zm120.87 8.83l-9.9 7.57 0.98 1.295 9.91-7.57-0.99-1.295zm-128.94 0.156l-0.989 1.299 9.918 7.553 0.987-1.295-9.916-7.557zm-4.778 6.772l-0.816 1.408 2.111 1.227c1.933 1.113 4.21 2.287 6.225 3.316l-0.01 0.02c-1.954-0.673-3.409-1.109-4.873-1.473l-4.56-1.176-0.844 1.461 10.789 6.244 0.814-1.41-2.027-1.174c-1.739-1.005-4.397-2.381-6.228-3.306l0.011-0.022c1.889 0.65 3.374 1.108 4.869 1.473l4.477 1.127 0.85-1.471-10.788-6.244zm137.73 0.584c-0.57 0.046-1.21 0.27-1.9 0.662-0.58 0.327-1.1 0.795-1.46 1.307-0.76 1.192-0.83 2.452-1.23 3.658-0.16 0.57-0.48 1.017-1.12 1.379-0.82 0.466-1.43 0.434-1.77-0.164-0.4-0.699 0.25-1.355 1.32-1.922l0.64-0.36-0.8-1.42-0.8 0.452c-1.94 1.096-2.96 2.474-2 4.177 0.79 1.387 2.4 1.734 4.46 0.571 0.93-0.529 1.5-1.052 1.9-1.924 0.33-0.704 0.66-2.026 0.81-2.729 0.16-0.673 0.27-1.219 1.09-1.685 0.74-0.42 1.19-0.272 1.46 0.203 0.44 0.782-0.48 1.382-1.46 1.922l0.77 1.369c1.07-0.616 3.59-1.966 2.31-4.223-0.53-0.938-1.28-1.351-2.22-1.273zm-143.48 10.322l-0.601 1.516 7.892 3.135c1.117 0.442 2.208 0.938 1.817 1.923-0.41 1.027-1.543 0.64-2.655 0.198l-7.896-3.139-0.602 1.514 8.082 3.214c2.564 1.017 4.018 0.919 4.811-1.08 0.787-1.982-0.203-3.051-2.768-4.07l-8.08-3.211zm148.27 0.094c-0.46 0.028-0.97 0.146-1.53 0.353-0.63 0.232-1.21 0.611-1.65 1.059-0.94 1.055-1.21 2.285-1.81 3.412-0.24 0.536-0.63 0.928-1.31 1.182-0.89 0.331-1.49 0.201-1.73-0.442-0.28-0.753 0.46-1.298 1.61-1.685l0.69-0.256-0.57-1.527-0.86 0.316c-2.08 0.774-3.31 1.972-2.63 3.805 0.55 1.495 2.09 2.094 4.3 1.275 1.02-0.375 1.66-0.8 2.19-1.598 0.44-0.645 0.97-1.893 1.24-2.564 0.26-0.643 0.45-1.163 1.35-1.492 0.79-0.294 1.21-0.076 1.4 0.435 0.31 0.844-0.7 1.288-1.75 1.666l0.55 1.473c1.15-0.439 3.86-1.37 2.95-3.803-0.37-1.008-1.05-1.534-1.99-1.607-0.15-0.011-0.29-0.011-0.45-0.002zm2.93 11.308c-0.9-0.002-1.97 0.169-3.14 0.377l-1.74 0.348c-3.27 0.653-5.61 1.299-5.09 3.924 0.53 2.625 2.94 2.318 6.21 1.668l1.74-0.348c3.1-0.692 5.38-1.326 4.87-3.883-0.32-1.597-1.35-2.082-2.85-2.086zm-0.39 1.647c0.68 0.001 1.28 0.181 1.4 0.809 0.24 1.185-1.94 1.586-2.92 1.783l-3.13 0.625c-1.17 0.233-2.86 0.559-3.08-0.582-0.22-1.097 1.41-1.482 2.42-1.686l3.4-0.678c0.47-0.093 1.24-0.272 1.91-0.271zm-149.23 2.416c-0.689-0.009-1.298 0.468-1.45 1.164-0.176 0.808 0.316 1.582 1.121 1.756 0.823 0.18 1.592-0.321 1.766-1.125 0.173-0.796-0.325-1.586-1.139-1.762-0.1-0.022-0.2-0.032-0.298-0.033zm153.54 7.605l-8.69 0.399c-2.75 0.127-4.04 0.813-3.94 2.965 0.1 2.125 1.44 2.692 4.2 2.566l8.69-0.396-0.08-1.629-8.49 0.388c-1.19 0.054-2.39 0.055-2.44-1.005-0.05-1.103 1.14-1.214 2.34-1.272l8.48-0.391-0.07-1.625zm-58.44 0.211c-0.21-0.028-0.43 0.016-0.65 0.161l0.32 0.447c-0.13 0.062-0.26 0.255-0.45 0.191 0.64 0.449-0.26 0.449-0.32 0.897 0.25 0.447-0.13 1.726 0.77 1.726 0.83-0.386 1.41-0.897 1.53-1.92-0.09-0.67-0.58-1.415-1.2-1.502zm3.44 0.67c0.26 0.767-0.83 0.192-0.7 0.512-0.13 0.96-1.54 0.254-1.28 1.473 0.51 0.701 1.15 1.725 2.17 1.279 0.77-0.641 1.09-1.471 0.9-2.559-0.26-0.447-0.58-0.641-1.09-0.705zm-6.03 0.682c-0.4 0.007-0.81 0.184-1.13 0.344 0.19 0.321 0.06 0.767-0.32 0.828 0.38 0.131 0.06 0.387 0 0.644 0.32 0.51 0.57 1.658 1.4 0.891 0.9-0.188 1.48-1.149 1.03-2.043-0.22-0.511-0.59-0.672-0.98-0.664zm-89.87 0.062l-0.242 3.014-10.606-0.855-0.1304 1.623 12.427 1.006 0.375-4.641-1.824-0.147zm98.47 1.299c-0.12 0.002-0.23 0.052-0.33 0.196h0.19c0.19 0.126 0.07 0.323 0.13 0.449-0.7-0.321-1.02 0.576-1.54 0.383l0.2 1.023c0.51 0.894 1.41 1.348 2.43 1.154 0.7-0.386 0.83-1.279 0.96-1.859l-0.84-1.15c-0.38 0.241-0.83-0.201-1.2-0.196zm-11.11 0.635c-0.21-0.026-0.43-0.024-0.67 0.008-0.7 0.065-0.32 0.641-0.7 1.025-0.13 0.191-0.38 0.318 0 0.514 0.06 0.445-0.13 0.956-0.26 1.084 0.51 0.515 1.15 0 1.79 0 0.64-0.189 0.96-0.894 1.09-1.535-0.19-0.671-0.64-1.017-1.25-1.096zm-13.795 1.254c-0.175 0.729-0.309 1.538-0.155 2.258 0.694 0.565 1.369 2.069 2.494 1.842 1.205-0.314 1.716-1.604 1.932-2.627l0.018-0.086 0.086-0.032c0.026-0.008 0.045-0.005 0.07-0.007-1.229-0.91-3.058-0.749-4.445-1.348zm36.925 0.881c-1.08 0.662-2.68 0.794-3.18 2.029l-0.01 0.012v0.01c-0.49 0.817 0.03 1.7 0.18 2.632 0.3-0.133 0.52-0.381 0.61-0.711l0.03-0.082 0.08-0.027c0.28-0.095 0.47 0.094 0.61 0.232l0.09 0.088-0.07 0.108c-0.7 1.111-1.86 1.555-2.98 1.978-1.03 0.394-2 0.762-2.64 1.602-0.16 0.33-0.12 0.698 0.1 1.098 0.41-0.265 1.52-0.994 1.53-1 0.45-0.248 1.32-0.358 1.84-0.108 0.18 0.083 0.31 0.205 0.38 0.354 0.92-0.384 1.82-1.283 2.33-2.358 0.6-1.072-0.19-1.854-0.94-2.611-0.28-0.279-0.54-0.539-0.72-0.807l-0.12-0.179 0.21-0.061c0.42-0.125 0.62 0.136 0.77 0.326 0.15 0.198 0.22 0.27 0.42 0.195 1.12-0.532 1.66-1.54 1.48-2.72zm-10.43 0.629l-1.02 0.382c-0.32 1.088 0.12 2.364 1.02 2.813 0.95 0.255 1.21-0.448 1.85-0.832 0.26-0.639 0.07-1.281-0.19-1.855-0.06 0.254 0.2 0.767-0.19 0.832-0.32-0.192-0.32-0.578-0.45-0.832l-0.25 0.515c-0.26-0.896-0.77 0.38-1.16-0.322-0.12-0.32 0.26-0.448 0.39-0.701zm-15.43 0.084c-0.18-0.005-0.35 0.011-0.5 0.043-0.89 0.127-1.08 1.467-0.83 1.914 0.42 0.106 0.63 0.594 0.87 0.941-0.13-0.204-0.25-0.499 0.03-0.619 0.45 0 0.38 0.706 0.83 0.193 0.19 0.127 0.06 0.382 0.13 0.639h0.19c-0.32-0.639 0.64-0.193 0.7-0.771 0.45-0.448 0.07-1.149-0.06-1.596-0.2-0.526-0.82-0.729-1.36-0.744zm-5.972 0.675c0.04 0.999-0.842 1.79-1.478 2.383l1.873 0.254c0.067-0.911-0.066-1.793-0.395-2.637zm20.862 2.729c-0.25-0.033-0.47 0.123-0.55 0.603-0.32 0.574-0.38 1.535 0.07 2.045 0.51 0.322 1.21 0.895 1.79 0.51 0.95-0.382 0.76-1.28 0.57-1.853l-0.19 0.193-0.51-0.895v0.639c-0.13 0-0.26 0-0.32-0.129 0.04-0.48-0.45-1.059-0.86-1.113zm-23.989 0.105c-0.288 0.823-0.563 1.756-0.451 2.629 0.505 1.27 1.725 0.895 2.809 1.358 0.157-0.579 0.009-1.385 0.867-1.778l0.025-0.013 0.032-0.004c0.807-0.06 2.167-0.421 2.797 0.281-0.12-0.601-0.31-1.141-0.76-1.508-1.701-0.478-3.661-0.277-5.319-0.965zm9.419 0.151c-0.27 0.019-0.53 0.09-0.75 0.219-0.26 0.575-0.96 1.535-0.39 1.851 0.51 0.514 1.15 0.451 1.67 0.322 0.19 0.704 0.76-0.127 1.21 0-0.06-0.257 0.51-0.705 0.32-1.216-0.34-0.816-1.25-1.234-2.06-1.176zm-83.6 0.049l-1.828 0.076 0.119 3.019-10.631 0.422 0.0643 1.629 12.459-0.49-0.183-4.656zm137.22 0.97l-0.15 1.621 5.34 0.504-0.03 0.289c-0.04 0.463-0.07 0.941-0.29 1.36-0.28 0.536-1.33 0.426-2.09 0.365-0.83-0.065-2.35-0.242-3.16-0.117l-0.17 1.781 0.23 0.024c0.41-0.36 3.45-0.029 3.96 0.017 1.19 0.113 2.1-0.09 2.37-1.035h0.03c0.11 1.109 1.52 1.486 2.87 1.613 2.29 0.215 3.08-0.785 3.21-2.189l0.29-3.069-12.41-1.164zm-19.77 1.502c-0.9 0.064-1.02 1.022-0.9 1.789 0.39 0.514 0.96 0.902 1.73 0.768 0.64-0.253 0.77-0.958 0.83-1.535-0.06-0.829-0.95-1.022-1.66-1.022zm-37.13 0.151l-0.08 0.008-1.55 0.173 0.01 0.045c0.74 0.137 1.18 0.886 1.83 0.981-0.11-0.577-0.18-0.982-0.21-1.207zm16.68 0.029c-0.28-0.024-0.58 0.068-0.91 0.332-0.2 0.448-0.9 0.962-0.64 1.725 0.32 1.216 1.85 1.216 2.87 1.027 0.2-0.321 0.77-0.513 0.64-0.961l-0.64 0.639-0.19-0.192c0.83-0.576-0.06-1.216 0.07-1.728-0.36-0.439-0.75-0.802-1.2-0.842zm-19.295 0.086c-0.188 0.129-0.238 0.358-0.285 0.711-0.038 0.281-0.082 0.571-0.248 0.812-0.259 0.673-0.292 1.193-0.096 1.586 0.31 0.637 1.214 0.902 2.074 1.162 0.7 0.203 1.42 0.417 1.87 0.828 2.45 1.55 3.44 4.17 3.99 6.91l-0.18 4.8h0.51l1.86-0.32h0.38c1.09-0.13 0.39-1.28 0.64-1.91 0.04-0.49 0.24-0.97 0.24-1.25s-0.16-0.53-0.52-0.72c-0.36-0.2-0.56-0.56-0.76-0.76s-0.82-0.22-0.96-0.56c-0.11-0.85 0.8-1.02 1.24-1.14 0.5-0.12 0.83-0.2 0.67-0.91l-0.34-1.01c-0.93-1.7-1.86-2.33-3.35-3.19-0.78-0.446-1.51-0.87-1.95-1.402l-0.3-0.184-0.02-0.016-0.02-0.019c-1.16-1.406-3.25-2.054-4.445-3.418zm-59.09 0.055c-0.101 0.008-0.204 0.029-0.309 0.06-0.317 0.321-0.701 0.261-0.83 0.707-0.191 0.641-0.128 1.468 0.321 1.983 0.383 0.32 1.344 0.64 1.855 0.062 0.19-0.511 0.512-1.024 0.383-1.726-0.113-0.671-0.713-1.147-1.42-1.086zm67.105 0.039c-0.19-0.019-0.38-0.01-0.57 0.021-0.83 0.131-1.02 0.961-1.34 1.537-0.05 0.463 0.21 1.025 0.57 1.399-0.05-0.078-0.08-0.164-0.06-0.246 0.25-0.255 0.38-0.194 0.57 0.062 0.19 0.258 0.19 0.13 0.45-0.062 0.32 0 0.77 0.32 0.9 0.511 0.12-0.318-0.32-0.258-0.32-0.511l0.25-0.254c0.64 0.575 0.64-0.581 1.22-0.514-0.45-0.194-0.32-0.64-0.45-1.025-0.19-0.574-0.67-0.863-1.22-0.918zm-60.183 0.027c-1.119 0.017-2.505 1.012-3.264 1.531-7.162 9.407-1.469 22.137 3.776 30.577 5.885 6.91 13.496 13.69 23.343 12.6 2.56 8.44 13.306 4.67 18.233 10.17-0.259 0.38-0.259 1.02-0.129 1.53 0.382 0.39 0.894 1.34 1.662 1.22 1.025 0.19 1.983-0.45 2.558-1.34-0.128-0.65 0.258-1.41-0.32-1.86 1.281-1.53 3.135-2.62 5.053-3.13 5.121 0.06 10.681-1.41 12.791-6.15 4.09 0.39 7.68-1.21 11-3 9.21-5.69 15.93-14.65 17.92-25.46 0.5-6.07-0.14-12.148-4.29-16.307-0.58 0-1.22-0.448-1.73 0-0.77 0.51-1.6 1.342-1.15 2.496 0.83 1.215 2.43 1.911 3.84 1.723 0.31 0 0.64-0.896 1.02-0.19 0.26 1.468 0.38 2.748 0.58 4.288 1.09 9.21-1.79 17.78-7.68 23.92-5.18 6.14-12.86 11.32-21.49 8.51-0.9 0.32-0.57 1.72-1.54 2.04-0.83-0.44-1.91-0.96-2.23-1.91-0.39-1.48 0.44-2.88 1.53-3.78-1.21-0.32-2.82-0.45-3.77 0.51-0.58 0.64-0.9 1.41-1.03 2.24-0.06 3.33 3.52 3.26 5.18 4.99-1.4 1.34-3.32 3.13-5.62 2.68-0.96-0.44-1.67-1.4-2.114-2.36l-0.959 0.51c-0.639 0.71-0.639 1.67-0.897 2.56-2.559 0.7-4.604 2.5-6.525 3.96-1.534-1.15-3.004-1.72-4.731-2.62-0.767-0.44-2.048-0.19-2.371-0.83 0.578-1.34 0.001-3.13-0.703-3.77-0.38 0.96-0.701 2.05-1.724 2.62-1.345 0.64-3.009 0.64-4.284 0-0.898-0.7-2.176-1.79-2.306-2.82 1.855-0.82 3.39-1.85 4.414-3.7 0.449-0.84 0.129-1.92-0.065-2.69-0.702-1.09-1.789-1.98-3.197-1.79 0.833 0.77 1.535 1.79 1.535 3.07-0.065 1.79-1.28 3.39-2.75 4.35-0.511-0.96-1.151-1.79-1.724-2.75-6.655 3.39-12.668-1.34-17.528-4.93-6.012-4.73-10.426-11.26-11.961-18.61-0.961-5.18-0.704-11.38 2.11-15.668 0.641 0.381 0.513 1.403 1.281 1.789 0.51 0.252 1.47 0.579 1.916-0.254 0.129-0.899 0.259-1.729-0.125-2.623-0.288-1.008-0.864-1.352-1.535-1.342zm118.69 0.404l3.43 0.321-0.11 1.207c-0.08 0.613-0.35 0.996-1.74 0.867-1.24-0.119-1.7-0.582-1.7-1.117l0.12-1.278zm-73.058 0.119l-0.114 0.297c0.352 0.744 0.8 1.426 1.371 2.086l0.006 0.014 0.008 0.01c1.094 1.838 0.9 2.028 0.816 2.108-0.088 0.09-0.218 0.08-0.388-0.03-0.088-0.06-0.156-0.1-0.211-0.13 0.314 0.63 1.182 1.93 1.193 1.95l-0.215 0.22c-0.401-0.23-0.686-0.26-0.722-0.22 0 0-0.169 0.3 1.277 1.9l0.17 0.18-0.238 0.07c-0.047 0.02-0.092 0.03-0.137 0.04-0.163 0.05-0.349 0.1-0.389 0.19-0.047 0.12 0.133 0.41 0.291 0.83 0.245 0.66 0.582 1.55 1.098 1.92l-0.176 0.27h0.006c-0.036-0.01-0.182 0.03-0.264 0.18-0.085 0.16-0.246 0.77 1.188 1.95l0.312 0.26-0.404 0.03c-0.159 0.01-0.351 0.13-0.408 0.34-0.055 0.22-0.036 0.82 1.338 1.71l-0.131 0.28c-0.288-0.08-0.507-0.05-0.584 0.07-0.09 0.16-0.018 0.49 0.357 0.88 0.143 0.15 0.27 0.3 0.393 0.44 0.5 0.55 0.797 0.86 1.111 0.76l0.121 0.3c-0.162 0.08-0.283 0.13-0.373 0.17-0.033 0.01-0.065 0.03-0.093 0.04 0.01 0.04 0.027 0.08 0.048 0.14l0.012 0.03c0.058 0.16 0.082 0.35 0.109 0.55 0.054 0.42 0.105 0.72 0.293 0.74 0.447 0.04 1.057-0.11 1.067-0.11l0.14 0.28c-0.39 0.34-0.43 0.54-0.42 0.62 0.01 0.09 0.09 0.17 0.23 0.24 0.23 0.11 0.46 0.33 0.68 0.54 0.19 0.17 0.51 0.47 0.6 0.41 0.34-0.22 0.81-0.37 0.83-0.38l0.55-0.17-0.38 0.43c-0.09 0.11-0.35 0.46-0.32 0.69 0 0.06 0.02 0.11 0.08 0.14 0.29 0.22 0.92 0.54 1.36 0.58h0.02l0.03 0.01 0.9 0.34c0.07 0.02 0.43 0.07 0.43 0.07 0.07 0.01 0.12 0.01 0.17 0 0.14-0.03 0.21-0.17 0.3-0.42 0.08-0.24-0.03-0.61 0.27-0.69l0.16 0.36c-0.21 2.09-0.32 2.17-1.33 2.71-1.05 0.57-1.96 1.05-1.49 2.56l0.01 0.04-0.01 0.04c-0.15 0.84-1.2 0.64-1.52 0.92l-0.05 0.04h-0.07c-0.86-0.06-1.56-0.13-2.383-0.34v0.32h0.01c0.103 0.01 0.118 0 0.144-0.04l0.092-0.14 0.137 0.1 0.97 0.71-0.64 0.18c0.08 1.25 1.45 2.34 2.21 3.37h0.24c0.24-0.23 0.37-0.44 0.38-0.66 0.05-0.84-1.45-1.7-1.81-2.78l-0.03-0.11 0.09-0.07c0.8-0.62 1.74-0.49 2.67-0.36 1.14 0.16 2.13 0.29 2.7-1.02-0.01-0.53-0.13-6.8-0.12-6.79l-0.07-0.57v-0.01-0.01c0-0.58 0.06-1.65-0.12-2.32l-0.01-0.03v-0.02l0.02-0.59v-0.06l0.04-0.04c0.21-0.24 0.73-0.41 1.09-0.62l0.04-0.02h0.04l9.63 0.37h0.03l0.03 0.01c0.15 0.08 0.41 0.11 0.65 0.14 0.36 0.05 0.59 0.08 0.64 0.26l0.01 0.01v0.01l0.19 1.73v0.01 0.01 1.16c-0.25 2.5 0.61 5.9-1.09 7.9 0.41 0.38 0.98 0.49 1.53 0.59l0.21 0.03c0.44-0.24 0.98-0.31 1.08-0.82l0.05-0.27 1.04 0.88 0.02 0.01 0.01 0.02c0.22 0.31 0.62 0.35 1.06 0.38 0.52 0.04 1.16 0.08 1.21 0.85v0.06l-0.04 0.05c-0.21 0.29-0.47 0.12-0.61 0.03-0.05-0.03-0.09-0.06-0.14-0.08-0.02 0.01-0.04 0.03-0.06 0.03-0.03 0.02-0.08 0.05-0.09 0.06 0 0.01 0 0.03 0.02 0.1l0.55 0.55 0.01 0.01 0.01 0.01c0.49 0.7 0.05 1.5-0.28 2.09l0.2 0.19 0.03 0.03c0.12-0.1 0.22-0.41 0.3-0.67 0.13-0.42 0.26-0.86 0.61-0.94l0.12-0.02 0.05 0.1c0.26 0.52 0.07 1.22 0.13 1.71h0.12l0.41-1.67 0.04-0.12h0.12c0.42 0 0.5 0.36 0.55 0.63 0.01 0.09 0.04 0.19 0.07 0.27 0.21 0.01 0.23-0.02 0.25-0.09 0.27-0.81-0.37-1.54-1.1-2.2l-0.05-0.04-0.01-0.06c-0.16-1.22-0.81-1.2-1.64-1.19-0.62 0.01-1.31 0.02-1.77-0.58-0.85-0.84-1.02-1.48-1.29-2.61l-0.33-1.34 0.29-0.1c0.24 0.48 0.58 0.74 0.81 0.5 0.36-0.38 0.72-0.76 0.83-0.97l0.1-0.21 0.16 0.17c0.15 0.16 0.37 0.35 0.56 0.29s0.46-0.4 0.65-1.64l0.04-0.27 0.22 0.16c0.32 0.24 0.59 0.33 0.78 0.26 0.3-0.09 0.44-0.54 0.54-0.83l0.03-0.1s0.07-0.23 0.07-0.22l0.18 0.15c0.17 0.15 0.24 0.09 0.28 0.07 0.3-0.23 0.43-1.24 0.33-1.48l0.27-0.16c0.19 0.24 0.27 0.18 0.3 0.16 0.35-0.23 0.5-1.61 0.34-1.91l-0.28-0.5 0.5 0.29c0.28 0.16 0.4 0.07 0.47 0 0.3-0.31 0.28-1.21 0.17-1.39l-0.19-0.28 0.34 0.04c0.27 0.04 0.32-0.06 0.33-0.09 0.14-0.35-0.46-1.4-0.92-1.75l-0.32-0.23 0.39-0.05c0.18-0.03 0.32-0.09 0.41-0.21 0.17-0.23 0.13-0.58 0.11-0.72-0.04-0.05-0.2-0.12-0.29-0.16-0.26-0.13-0.48-0.23-0.46-0.42 0.02-0.18 0.21-0.23 0.28-0.25 0.26-0.07 0.32-0.34 0.38-0.75 0.03-0.22 0.06-0.43 0.15-0.57 0.1-0.14 0.1-0.4 0.01-0.57-0.09-0.15-0.2-0.14-0.24-0.14-0.58 0.03-0.64-0.25-0.65-0.3l-0.01-0.08 0.06-0.06c0.3-0.3 1.12-1.17 1.24-1.58 0.13-0.41-0.42-0.65-0.44-0.66l-0.25-0.1 0.21-0.17c0.01-0.01 0.76-0.6 0.83-1.22 0.02-0.12 0.05-0.38-0.02-0.42-0.13-0.08-0.22-0.2-0.25-0.34-0.07-0.31 0.15-0.62 0.18-0.65l0.03-0.05 0.05-0.02c1.42-0.38 2.3-1.38 2.44-2.748-0.08-0.13-0.09-0.308-0.11-0.498-0.01-0.165-0.02-0.392-0.1-0.443-0.04-0.029-0.14-0.015-0.25 0.027-1.4 1.153-2.95 2.222-4.45 3.252-2.6 1.78-5.29 3.62-7.45 6.1-0.51 1.01-0.23 1.93 0.05 2.91 0.29 1 0.6 2.03-0.05 3.1l-0.04 0.06-0.07 0.01c-0.91 0.17-2.28-0.04-2.34-0.05l-0.09-0.01-0.03-0.08-0.63-1.59-0.43-0.91-0.01-0.02v-0.01c-0.22-1.05-0.57-2.77-0.57-2.77l0.19 0.1c0.01-0.03 0.03-0.06 0.04-0.09 0.07-0.12 0.15-0.27 0.27-0.35 0.65-0.88-0.18-1.85 0.15-2.83-1.59 0.53-3.11-0.64-4.56-0.11-0.34 0.3-0.21 0.49 0.09 0.87 0.16 0.19 0.32 0.39 0.37 0.62l0.03 0.14-0.13 0.04c-0.06 0.02-0.11 0.04-0.16 0.04 0.31 0.17 0.62 0.32 0.95 0.36l0.23 0.03-0.1 0.2c-0.1 0.21-0.23 0.35-0.4 0.4-0.54 0.19-1.19-0.48-1.77-0.52 0.1 0.17 0.28 0.25 0.55 0.35 0.35 0.12 0.77 0.28 0.93 0.81l0.01 0.05-0.02 0.05c-0.49 1.09 0.07 2.35-0.61 3.51l-0.02 0.04-0.05 0.02c-1.43 0.64-2.63 1.03-3.86 0.92h-0.04l-0.03-0.02c-0.41-0.23-1.02-0.01-1.25-0.64l-0.03-0.06 0.03-0.06c0.77-1.59 0.98-4.28 0.02-6.04l-11.595-9.808-0.783-0.317zm33.108 0.528c-0.11 0.012-0.24 0.05-0.39 0.115l-0.03 0.014h-0.02c-0.22 0.02-0.36 0.069-0.4 0.146-0.2 0.284 0.69 1.3-0.24 1.875-2.29 1.787-4.54 2.887-7.01 4.467-1.79 1.41-1.72 3.91-1.61 4.91l0.02 0.14-0.13 0.03c-0.38 0.11-0.62 0.26-0.73 0.48-0.34 0.69 0.55 1.9 0.64 2.75 0.27 0.24 0.39 0.54 0.5 0.81 0.17 0.43 0.28 0.7 0.85 0.64 0.65-0.24 0.53-0.74 0.28-1.54-0.11-0.35-0.23-0.71-0.21-1.03-0.88-3.96 1.83-5.59 4.46-7.16 1.43-0.85 2.9-1.74 3.75-2.99 0.39-0.64 1.12-1.247 0.94-2.122-0.13-0.419-0.05-1.285-0.4-1.492-0.07-0.041-0.16-0.055-0.27-0.043zm-9.88 0.695c-0.67-0.04-1.38 0.297-1.58 0.938-0.51 0.768 0 1.595 0.51 2.244 0.54 0.59 1.68 0.13 2.05 0.06-0.09-0.01-0.15-0.15-0.25-0.2 1.15-0.571-0.39-1.083 0.51-1.722 0.03-0.862-0.58-1.28-1.24-1.32zm-6.21 0.496c-0.61 0.035-1.2 0.304-1.44 0.822-0.32 0.707-0.26 1.794 0.51 2.174-0.07-0.19 0.13-0.31 0.19-0.45 0.38 0.26 0.9 0.45 1.35 0.2-0.33-0.06-0.84 0.19-1.03-0.2 0-0.06 0-0.249 0.13-0.315 0.13 0.066 0.32-0.063 0.38 0.127 0.83-0.382 0.83-1.216 1.22-1.916-0.13 0-0.19-0.128-0.26-0.254-0.31-0.145-0.68-0.209-1.05-0.188zm14.57 0.147c-0.16 0.016-0.3 0.101-0.45 0.193-0.04 0.024-0.08 0.043-0.12 0.066v0.043c-0.01 0.148 0 0.283 0.02 0.354 0.06-0.055 0.12-0.118 0.18-0.178 0.2-0.184 0.34-0.322 0.37-0.478zm-11.83 0.568c-0.5 0.025-1.01 0.238-1.3 0.621-0.07 0.894 0 1.79 0.63 2.37 0.39 0.13 1.67 0.25 1.28-0.51 0.26 0 0.39-0.07 0.52-0.13l-0.19-0.52c0.25-0.06 0.12-0.317 0.44-0.317 0.28-1.078-0.54-1.556-1.38-1.514zm-90.298 3.011l-12.341 1.77 0.23 1.61 12.342-1.77-0.231-1.61zm135.21 2.74l-0.32 1.59 12.22 2.48 0.32-1.6-12.22-2.47zm-45.7 1.31c0.38-0.01 0.77-0.01 1.21 0.02 0.07 0.19 0 0.38-0.19 0.51-0.57 0.07-1.47 0.32-2.17-0.19l-0.07-0.32c0.45 0 0.83-0.01 1.22-0.02zm-2.24 0.5c-0.07-0.01-0.15 0.01-0.25 0.05-0.03 0.02-0.06 0.03-0.08 0.05-0.18 0.1-0.28 0.19-0.33 0.28 0.45-0.14 0.84-0.06 1.21 0.09-0.21-0.26-0.33-0.46-0.55-0.47zm-86.314 1.2l-6.487 1.69 0.684 2.63 1.769-0.46-0.285-1.1c1.81-0.5 3.255-0.56 3.489 0.33 0.281 1.09-1.329 1.56-2.329 1.82l-3.345 0.88c-0.937 0.24-3.016 0.89-3.336-0.35-0.214-1.09 0.734-1.39 1.953-1.73l-0.41-1.58c-0.48 0.13-0.983 0.25-1.446 0.46-2 0.9-2.254 1.97-1.919 3.32 0.656 2.52 2.987 2.1 6.08 1.37l1.718-0.45c3.223-0.84 5.527-1.62 4.852-4.21-0.214-0.56-0.721-1.06-2.059-1.05l-0.007-0.02 1.384-0.36-0.306-1.19zm132.72 3.58l-1.32 4.39 1.75 0.53 0.86-2.83 3.67 1.11-0.79 2.6 1.75 0.54 0.79-2.61 3.01 0.91-0.85 2.83 1.75 0.52 1.32-4.38-11.94-3.61zm-63.328 1.86v1.05c0.123 1.31 1.268 2.46 1.529 3.63l0.092 0.42-0.344-0.26c-0.353-0.26-0.895-0.14-1.408-0.3 0.428 0.92 1.555 1.47 1.908 2.42l0.084 0.22h-0.23-0.064-0.04l-0.033-0.02-0.052-0.03c-0.429-0.21-1.079-0.54-1.438-0.38-0.1 0.05-0.164 0.14-0.215 0.26l2.045 1.08 0.027 0.02 0.022 0.02c0.319 0.4 1.243-0.19 1.613 0.2 0.141 0.15 0.166 0.4 0.082 0.77l-0.047 0.2-0.183-0.09c-0.48-0.25-1.224-0.23-1.74-0.12-0.593 0.17-0.881 0.38-0.915 0.67 0.394-0.06 0.616 0.19 0.797 0.39 0.133 0.16 0.256 0.3 0.444 0.36l0.248 0.08-0.182 0.19c-0.656 0.65-1.266 1.43-0.953 2.29 0.465 0.03 0.796-0.25 1.145-0.56 0.402-0.35 0.858-0.75 1.535-0.53l0.246 0.08-0.375 0.38-0.028 0.03h-0.035c-0.82 0.28-1.272 1.23-1.394 2.14 0.971-0.49 2.165-1.15 2.672-2.16l0.295 0.12c-0.212 0.65-0.786 1.3-0.959 1.94 0.035-0.04 0.071-0.07 0.109-0.11 0.522-0.49 1.117-1.04 1.117-1.76v-0.16h0.156c0.105 0 0.257-0.15 0.377-0.28 0.173-0.19 0.351-0.37 0.571-0.33 0.112 0.02 0.188 0.1 0.25 0.19 0.649-0.51 1.799-0.07 2.169-0.93 0.07-0.46 0.24-1.18-0.1-1.48l-1.59 1.4-0.09-0.19-0.065-0.13-0.049-0.09 0.066-0.08c0.188-0.23 0.278-0.53 0.278-0.94-0.12-0.15-0.17-0.34-0.21-0.52-0.04-0.17-0.068-0.27-0.112-0.32-0.07 0.78-0.715 1.56-1.245 2.2l-0.189 0.23-0.047 0.06h-0.078-0.318-0.123l-0.032-0.11c-0.146-0.51 0.176-0.99 0.541-1.43 0.612-0.75 0.673-1.94 0.192-3.53-0.24-0.03-0.372 0.15-0.539 0.45-0.08 0.15-0.158 0.28-0.264 0.37-0.188 0.14-0.253 0.4-0.315 0.65-0.078 0.32-0.178 0.72-0.613 0.72h-0.152l-0.006-0.15c-0.059-1.39 0.467-2.55-0.127-3.57-0.241 0.6-0.526 1.16-0.578 1.85l-0.027 0.34-0.245-0.24c-1.761-1.76 0.539-3.71-0.441-5.32-0.295 0.23-0.528 0.66-0.752 1.08 0.129-0.25-0.215 0.34-0.223 0.26l-0.357 0.44-0.162-0.28c-0.061-0.33-0.078-0.24-0.078-0.49 0.002-0.45 0.257-0.88 0.062-1.3-0.243-0.44-0.502-0.77-0.91-1.01zm24.908 2.41l-10.17 0.06 0.13 2.57h10.11l-0.07-2.63zm16.26 0.2c-0.95 0.87-2.83 2.55-2.83 2.55l-0.21-0.25v0.01c0.06-0.08 0.03-0.46 0.01-0.7-0.48 0.41-1.63 1.71-2.17 2.7l-0.25 0.45-0.13-1.37c-1.49 0.93-1.48 2.33-1.48 2.39l0.04 0.84v0.12l-0.11 0.04-0.6 0.2-0.06 0.02-0.07-0.03-0.9-0.49-0.11 0.17-0.69 3.02 0.5 0.3 0.02 0.01 0.02 0.02 0.41 0.45 1.21-0.32 0.12-0.03 0.06 0.12 0.43 0.87c0.31-0.17 1.01-0.55 1.35-0.58h-0.01c0.28-0.08 2.18-1.75 3.92-3.36-0.13 0.01-0.32 0.02-0.59 0.07l-0.08-0.3c0.8-0.29 1.63-1.5 2.07-2.15l0.05-0.07c0.13-0.18 0.13-0.26 0.12-0.28-0.03-0.03-0.21-0.1-0.75 0.01l-0.55 0.11 1.68-1.66c0.35-0.38 0.45-1.14 0.41-1.37-0.26 0-0.75-0.15-0.87-0.36-0.06-0.1-0.06-0.21 0.01-0.3 0.07-0.08 0.08-0.45 0.03-0.85zm-107.81 1.19l-11.636 4.48 0.584 1.52 11.638-4.48-0.586-1.52zm81.379 2.06s-0.01 4.24 0.2 5.44c0.2 1.21 1.68 0.9 2.36 0.9 0.69 0 2.04-0.14 2.75 0.96 0.11-0.96 2.58-0.52 3.58-0.84 1.01-0.32 1.28-1.83 1.28-1.83l0.07-4.63h-10.24zm45.63 1.21l-0.64 1.5 2.16 0.92c1.85 0.78 4.66 1.82 6.59 2.52l-0.01 0.02c-1.95-0.41-3.48-0.68-5.01-0.87l-4.59-0.57-0.66 1.56 11.48 4.89 0.63-1.5-2.25-0.96c-2.05-0.87-4.45-1.75-6.58-2.53l0.01-0.02c2.02 0.42 3.52 0.68 5.01 0.86l4.68 0.61 0.66-1.55-11.48-4.88zm-125.7 2.79c-0.626 0.01-1.34 0.2-2.127 0.61-0.965 0.49-1.549 0.99-1.988 1.84-0.353 0.7-0.73 2-0.912 2.7-0.179 0.67-0.314 1.21-1.156 1.64-0.754 0.39-1.195 0.22-1.444-0.26-0.414-0.8 0.531-1.36 1.528-1.86l-0.719-1.4c-1.09 0.57-3.663 1.82-2.477 4.13 0.79 1.53 2.208 1.74 4.102 0.77 0.589-0.31 1.126-0.75 1.506-1.25 0.805-1.16 0.927-2.41 1.382-3.6 0.177-0.57 0.516-1 1.165-1.34 0.845-0.43 1.45-0.38 1.767 0.23 0.365 0.72-0.303 1.35-1.396 1.87l-0.653 0.34 0.748 1.45 0.815-0.42c1.98-1.02 3.05-2.36 2.156-4.1-0.457-0.88-1.253-1.37-2.297-1.35zm81.674 3.1c0.64 0.92-0.02 1.86-0.56 2.64-0.31 0.44-0.59 0.86-0.65 1.23h0.58 0.04l0.04 0.03 1.9 1.27 1.6 0.36 1.23-0.18c0.16-0.09 0.38-0.1 0.57-0.1 0.1 0 0.26 0 0.29-0.03l0.03-0.04 0.05-0.01 0.84-0.33h0.03 0.02c0.36 0 0.64-0.28 0.9-0.56 0.26-0.26 0.55-0.55 0.91-0.51-0.26-0.6-0.96-1.03-1.25-1.72l-0.03-0.07 0.04-0.07c0.29-0.51 0.67-0.93 0.78-1.49-1.27 0-2.48-0.48-3.26 0.64l-0.1 0.14-0.13-0.12c-1.26-1.08-2.66-0.88-3.87-1.08zm17.18 0.88c-0.27 0.01-0.51 0.09-0.65 0.23l0.73 1c0.06-0.38 0.1-0.9-0.08-1.23zm-4.1 0.88l-0.12 0.06c-0.48 0.27-1.64 0.91-2.03 1.16l0.03 0.03 0.01 0.04c0.11 0.6-0.21 1.08-0.23 1.1l-0.02 0.04-0.04 0.02c-0.28 0.12-0.48 0.42-0.63 0.9 0.84 0.45 1.32 1.45 2.41 1.15l1.05-1.09-0.24-0.65-0.02-0.06 0.03-0.06 0.55-1.41-0.31-0.52c-0.23-0.12-0.54-0.33-0.44-0.58l-0.01 0.04c0.01-0.06 0-0.12 0.01-0.17zm29.39 6.84c-0.48 0.02-0.93 0.26-1.2 0.69-0.44 0.69-0.24 1.6 0.46 2.05 0.7 0.43 1.6 0.22 2.03-0.47 0.44-0.69 0.25-1.59-0.45-2.03-0.27-0.17-0.56-0.24-0.84-0.24zm-120.69 1.53c-0.285 0.02-0.57 0.12-0.82 0.3-0.655 0.5-0.775 1.41-0.283 2.07s1.402 0.79 2.058 0.3c0.673-0.51 0.796-1.42 0.301-2.08-0.305-0.4-0.78-0.61-1.256-0.59zm103.35 9.6l-1.48 1.1 0.76 2.07c0.25 0.71 0.47 1.46 0.92 2.14l-0.03 0.03c-0.34-0.45-0.75-0.75-1.18-1.08l-2.39-1.74-1.47 1.09 5.32 3.72 2.04 6.35 1.43-1.06-0.79-2.27c-0.26-0.74-0.5-1.5-0.93-2.21l0.02-0.01c0.38 0.4 0.79 0.75 1.21 1.07l2.55 1.89 1.5-1.11-5.5-3.79-1.98-6.19zm-86.896 1.27l-6.763 10.47 1.369 0.88 2.129-3.29c1.342-2.08 2.658-4.18 3.914-6.32l0.049 0.04-4.721 10.46 0.83 0.54 7.627-8.6 0.018 0.02c-1.432 2.02-2.801 4.09-4.149 6.17l-2.127 3.29 1.369 0.89 6.764-10.48-2.17-1.4-3.871 4.38c-0.543 0.63-1.039 1.3-1.779 2.28l-0.018-0.01c0.464-0.85 0.912-1.71 1.307-2.58l2.404-5.33-2.182-1.41zm78.346 4.45l-1.43 0.77 5.89 10.99 1.43-0.76-5.89-11zm-67.685 2.02l-5.592 11.14 2.697 1.36c0.362 0.18 0.774 0.35 1.23 0.24 1.695-0.39 2.97-2.93 4.075-5.13 0.923-1.85 1.449-3.13 1.504-4.07 0.073-1.26-0.521-1.84-0.873-2.02l-3.041-1.52zm62.365 0.68l-1.71 0.66 0.18 2.2c0.06 0.76 0.07 1.54 0.32 2.32l-0.03 0.01c-0.22-0.53-0.53-0.92-0.86-1.35l-1.85-2.31-1.7 0.66 4.14 4.99 0.29 6.66 1.66-0.64-0.16-2.4c-0.05-0.78-0.08-1.57-0.32-2.37l0.03-0.01c0.26 0.49 0.56 0.94 0.88 1.35l1.97 2.5 1.74-0.67-4.31-5.11-0.27-6.49zm-61.727 1.68l0.955 0.48c0.877 0.44 0.542 1.57-0.779 4.21-1.619 3.22-2.193 4.16-3.492 3.51l-0.637-0.32 3.953-7.88zm52.517 1.63l-1.78 0.44-0.1 2.2c-0.04 0.76-0.12 1.54 0.03 2.34l-0.04 0.01c-0.15-0.55-0.41-0.98-0.68-1.44l-1.54-2.53-1.77 0.44 3.48 5.47-0.55 6.65 1.72-0.43 0.15-2.4c0.05-0.78 0.12-1.57-0.02-2.4h0.02c0.2 0.52 0.45 1 0.71 1.45l1.64 2.73 1.81-0.45-3.63-5.61 0.55-6.47zm-42.15 0.42c-1.849-0.01-2.57 2.03-3.382 4.69l-0.483 1.71c-0.902 3.2-1.391 5.58 1.184 6.31 1.749 0.49 2.739-1.04 3.435-3.21 0.075-0.22 0.154-0.46 0.229-0.68l-1.582-0.45c-0.25 0.76-0.709 2.77-1.569 2.53-1.077-0.3-0.678-1.94-0.398-2.93l0.937-3.32c0.262-0.93 0.752-3.06 1.985-2.71 0.772 0.22 0.311 1.64 0.162 2.43l1.547 0.43c0.096-0.3 0.159-0.61 0.221-0.92 0.466-2.08-0.03-3.32-1.42-3.75-0.314-0.09-0.601-0.13-0.866-0.13zm32.56 1.73l-1.821 0.23-0.36 2.17c-0.126 0.76-0.297 1.52-0.242 2.33h-0.033c-0.084-0.56-0.296-1.01-0.51-1.5l-1.232-2.7-1.815 0.23 2.819 5.84-1.334 6.55 1.769-0.23 0.428-2.37c0.136-0.77 0.297-1.54 0.262-2.38h0.023c0.136 0.54 0.321 1.05 0.536 1.52l1.3 2.9 1.85-0.23-2.94-5.99 1.3-6.37zm-22.726 0.2c-2.185 0.01-2.614 2.23-3.043 5.18l-0.218 1.76c-0.404 3.31-0.526 5.73 2.134 6.06 1.803 0.22 2.545-1.44 2.903-3.7 0.04-0.23 0.083-0.48 0.123-0.7l-1.629-0.2c-0.133 0.79-0.28 2.85-1.17 2.73-1.109-0.13-0.962-1.8-0.836-2.83l0.418-3.43c0.12-0.96 0.28-3.13 1.549-2.97 0.797 0.09 0.56 1.57 0.529 2.37l1.598 0.2c0.05-0.31 0.063-0.63 0.078-0.95 0.142-2.12-0.535-3.28-1.975-3.49-0.161-0.02-0.315-0.03-0.461-0.03zm10.168 0.53c-2.603 0.03-2.758 2.39-2.804 5.57l0.013 1.77c0.024 3.33 0.217 5.76 2.893 5.74 1.815-0.02 2.338-1.77 2.4-4.05 0.009-0.23 0.021-0.48 0.03-0.71l-1.641 0.01c-0.028 0.8 0.093 2.86-0.803 2.87-1.117 0.01-1.188-1.67-1.195-2.7l-0.027-3.46c-0.008-0.97-0.126-3.15 1.152-3.15 0.802-0.01 0.757 1.49 0.832 2.28l1.603-0.01c0.009-0.31-0.014-0.63-0.041-0.95-0.132-2.12-0.955-3.18-2.412-3.21z" transform="matrix(.8 0 0 -.8 327.2 439.36)" fill="#edd372"/></g></g></svg>